<?xml version="1.0" encoding="UTF-8" standalone="no"?>
<!DOCTYPE svg PUBLIC "-//W3C//DTD SVG 1.1//EN"
 "http://www.w3.org/Graphics/SVG/1.1/DTD/svg11.dtd">
<!-- Generated by graphviz version 2.40.1 (20161225.0304)
 -->
<!-- Title: models_diagram Pages: 1 -->
<svg width="1067pt" height="956pt"
 viewBox="0.00 0.00 1067.32 956.00" xmlns="http://www.w3.org/2000/svg" xmlns:xlink="http://www.w3.org/1999/xlink">
<g id="graph0" class="graph" transform="scale(1 1) rotate(0) translate(4 952)">
<title>models_diagram</title>
<polygon fill="transparent" stroke="transparent" points="-4,4 -4,-952 1063.3225,-952 1063.3225,4 -4,4"/>
<!-- _diagram_info -->
<g id="node1" class="node">
<title>_diagram_info</title>
<text text-anchor="start" x="8" y="-926.6" font-family="Times,serif" font-size="13.00" fill="#000000">Models diagram</text>
<text text-anchor="start" x="8" y="-913.6" font-family="Times,serif" font-size="13.00" fill="#000000">Date: Apr 20 2017 &#45; 17:09</text>
<text text-anchor="start" x="8" y="-900.6" font-family="Times,serif" font-size="13.00" fill="#000000">Migration version: 20170419093508</text>
<text text-anchor="start" x="8" y="-887.6" font-family="Times,serif" font-size="13.00" fill="#000000">Generated by RailRoady 1.5.2</text>
<text text-anchor="start" x="8" y="-874.6" font-family="Times,serif" font-size="13.00" fill="#000000">http://railroady.prestonlee.com</text>
</g>
<!-- ApplicationRecord -->
<g id="node2" class="node">
<title>ApplicationRecord</title>
<ellipse fill="none" stroke="#000000" cx="302.6877" cy="-904.5" rx="77.2916" ry="18"/>
<text text-anchor="middle" x="302.6877" y="-900.3" font-family="Times,serif" font-size="14.00" fill="#000000">ApplicationRecord</text>
</g>
<!-- Group -->
<g id="node3" class="node">
<title>Group</title>
<path fill="none" stroke="#000000" d="M295.8254,-723.5C295.8254,-723.5 519.55,-723.5 519.55,-723.5 525.55,-723.5 531.55,-729.5 531.55,-735.5 531.55,-735.5 531.55,-811.5 531.55,-811.5 531.55,-817.5 525.55,-823.5 519.55,-823.5 519.55,-823.5 295.8254,-823.5 295.8254,-823.5 289.8254,-823.5 283.8254,-817.5 283.8254,-811.5 283.8254,-811.5 283.8254,-735.5 283.8254,-735.5 283.8254,-729.5 289.8254,-723.5 295.8254,-723.5"/>
<text text-anchor="middle" x="407.6877" y="-808.3" font-family="Times,serif" font-size="14.00" fill="#000000">Group</text>
<polyline fill="none" stroke="#000000" points="283.8254,-801.5 531.55,-801.5 "/>
<text text-anchor="start" x="291.8254" y="-786.3" font-family="Times,serif" font-size="14.00" fill="#000000">id :integer</text>
<text text-anchor="start" x="291.8254" y="-772.3" font-family="Times,serif" font-size="14.00" fill="#000000">tournament_id :integer</text>
<text text-anchor="start" x="291.8254" y="-758.3" font-family="Times,serif" font-size="14.00" fill="#000000">name :character varying</text>
<text text-anchor="start" x="291.8254" y="-744.3" font-family="Times,serif" font-size="14.00" fill="#000000">created_at :timestamp without time zone</text>
<text text-anchor="start" x="291.8254" y="-730.3" font-family="Times,serif" font-size="14.00" fill="#000000">updated_at :timestamp without time zone</text>
</g>
<!-- GroupsTeam -->
<g id="node4" class="node">
<title>GroupsTeam</title>
<path fill="none" stroke="#000000" d="M367.8254,-49.5C367.8254,-49.5 591.55,-49.5 591.55,-49.5 597.55,-49.5 603.55,-55.5 603.55,-61.5 603.55,-61.5 603.55,-151.5 603.55,-151.5 603.55,-157.5 597.55,-163.5 591.55,-163.5 591.55,-163.5 367.8254,-163.5 367.8254,-163.5 361.8254,-163.5 355.8254,-157.5 355.8254,-151.5 355.8254,-151.5 355.8254,-61.5 355.8254,-61.5 355.8254,-55.5 361.8254,-49.5 367.8254,-49.5"/>
<text text-anchor="middle" x="479.6877" y="-148.3" font-family="Times,serif" font-size="14.00" fill="#000000">GroupsTeam</text>
<polyline fill="none" stroke="#000000" points="355.8254,-141.5 603.55,-141.5 "/>
<text text-anchor="start" x="363.8254" y="-126.3" font-family="Times,serif" font-size="14.00" fill="#000000">id :integer</text>
<text text-anchor="start" x="363.8254" y="-112.3" font-family="Times,serif" font-size="14.00" fill="#000000">group_id :integer</text>
<text text-anchor="start" x="363.8254" y="-98.3" font-family="Times,serif" font-size="14.00" fill="#000000">team_id :integer</text>
<text text-anchor="start" x="363.8254" y="-84.3" font-family="Times,serif" font-size="14.00" fill="#000000">created_at :timestamp without time zone</text>
<text text-anchor="start" x="363.8254" y="-70.3" font-family="Times,serif" font-size="14.00" fill="#000000">updated_at :timestamp without time zone</text>
<text text-anchor="start" x="363.8254" y="-56.3" font-family="Times,serif" font-size="14.00" fill="#000000">order :integer</text>
</g>
<!-- Group&#45;&gt;GroupsTeam -->
<g id="edge2" class="edge">
<title>Group&#45;&gt;GroupsTeam</title>
<path fill="none" stroke="#6e9c33" d="M401.5072,-715.0561C392.5707,-614.5499 381.2146,-403.1705 421.6877,-231 426.3091,-211.3412 434.2205,-191.0637 442.7394,-172.7284"/>
<ellipse fill="none" stroke="#6e9c33" cx="401.8915" cy="-719.2828" rx="4" ry="4"/>
<polygon fill="#6e9c33" stroke="#6e9c33" points="442.7835,-172.6361 451.1563,-165.5546 444.9399,-168.125 447.0963,-163.6139 447.0963,-163.6139 447.0963,-163.6139 444.9399,-168.125 443.0363,-161.6731 442.7835,-172.6361 442.7835,-172.6361"/>
</g>
<!-- Match -->
<g id="node5" class="node">
<title>Match</title>
<path fill="none" stroke="#000000" d="M101.8254,-.5C101.8254,-.5 325.55,-.5 325.55,-.5 331.55,-.5 337.55,-6.5 337.55,-12.5 337.55,-12.5 337.55,-200.5 337.55,-200.5 337.55,-206.5 331.55,-212.5 325.55,-212.5 325.55,-212.5 101.8254,-212.5 101.8254,-212.5 95.8254,-212.5 89.8254,-206.5 89.8254,-200.5 89.8254,-200.5 89.8254,-12.5 89.8254,-12.5 89.8254,-6.5 95.8254,-.5 101.8254,-.5"/>
<text text-anchor="middle" x="213.6877" y="-197.3" font-family="Times,serif" font-size="14.00" fill="#000000">Match</text>
<polyline fill="none" stroke="#000000" points="89.8254,-190.5 337.55,-190.5 "/>
<text text-anchor="start" x="97.8254" y="-175.3" font-family="Times,serif" font-size="14.00" fill="#000000">point_b :integer</text>
<text text-anchor="start" x="97.8254" y="-161.3" font-family="Times,serif" font-size="14.00" fill="#000000">group_id :integer</text>
<text text-anchor="start" x="97.8254" y="-147.3" font-family="Times,serif" font-size="14.00" fill="#000000">venue_id :integer</text>
<text text-anchor="start" x="97.8254" y="-133.3" font-family="Times,serif" font-size="14.00" fill="#000000">team_a_id :integer</text>
<text text-anchor="start" x="97.8254" y="-119.3" font-family="Times,serif" font-size="14.00" fill="#000000">team_b_id :integer</text>
<text text-anchor="start" x="97.8254" y="-105.3" font-family="Times,serif" font-size="14.00" fill="#000000">time :timestamp without time zone</text>
<text text-anchor="start" x="97.8254" y="-91.3" font-family="Times,serif" font-size="14.00" fill="#000000">created_at :timestamp without time zone</text>
<text text-anchor="start" x="97.8254" y="-77.3" font-family="Times,serif" font-size="14.00" fill="#000000">updated_at :timestamp without time zone</text>
<text text-anchor="start" x="97.8254" y="-63.3" font-family="Times,serif" font-size="14.00" fill="#000000">code :character varying</text>
<text text-anchor="start" x="97.8254" y="-49.3" font-family="Times,serif" font-size="14.00" fill="#000000">score_a :integer</text>
<text text-anchor="start" x="97.8254" y="-35.3" font-family="Times,serif" font-size="14.00" fill="#000000">score_b :integer</text>
<text text-anchor="start" x="97.8254" y="-21.3" font-family="Times,serif" font-size="14.00" fill="#000000">point_a :integer</text>
<text text-anchor="start" x="97.8254" y="-7.3" font-family="Times,serif" font-size="14.00" fill="#000000">id :integer</text>
</g>
<!-- Group&#45;&gt;Match -->
<g id="edge1" class="edge">
<title>Group&#45;&gt;Match</title>
<path fill="none" stroke="#aa099b" d="M275.5355,-748.708C210.4919,-733.5424 141.9394,-712.0491 122.6877,-686 66.8189,-610.4046 98.2188,-353.7594 122.6877,-263 126.4103,-249.1926 131.6842,-235.3495 137.8404,-221.9196"/>
<ellipse fill="none" stroke="#aa099b" cx="279.5483" cy="-749.6301" rx="4" ry="4"/>
<polygon fill="#aa099b" stroke="#aa099b" points="137.9347,-221.7216 146.2979,-214.6288 140.085,-217.2076 142.2352,-212.6936 142.2352,-212.6936 142.2352,-212.6936 140.085,-217.2076 138.1726,-210.7583 137.9347,-221.7216 137.9347,-221.7216"/>
</g>
<!-- Team -->
<g id="node7" class="node">
<title>Team</title>
<path fill="none" stroke="#000000" d="M447.8254,-424.5C447.8254,-424.5 671.55,-424.5 671.55,-424.5 677.55,-424.5 683.55,-430.5 683.55,-436.5 683.55,-436.5 683.55,-512.5 683.55,-512.5 683.55,-518.5 677.55,-524.5 671.55,-524.5 671.55,-524.5 447.8254,-524.5 447.8254,-524.5 441.8254,-524.5 435.8254,-518.5 435.8254,-512.5 435.8254,-512.5 435.8254,-436.5 435.8254,-436.5 435.8254,-430.5 441.8254,-424.5 447.8254,-424.5"/>
<text text-anchor="middle" x="559.6877" y="-509.3" font-family="Times,serif" font-size="14.00" fill="#000000">Team</text>
<polyline fill="none" stroke="#000000" points="435.8254,-502.5 683.55,-502.5 "/>
<text text-anchor="start" x="443.8254" y="-487.3" font-family="Times,serif" font-size="14.00" fill="#000000">id :integer</text>
<text text-anchor="start" x="443.8254" y="-473.3" font-family="Times,serif" font-size="14.00" fill="#000000">name :character varying</text>
<text text-anchor="start" x="443.8254" y="-459.3" font-family="Times,serif" font-size="14.00" fill="#000000">created_at :timestamp without time zone</text>
<text text-anchor="start" x="443.8254" y="-445.3" font-family="Times,serif" font-size="14.00" fill="#000000">updated_at :timestamp without time zone</text>
<text text-anchor="start" x="443.8254" y="-431.3" font-family="Times,serif" font-size="14.00" fill="#000000">tournament_id :integer</text>
</g>
<!-- Group&#45;&gt;Team -->
<g id="edge3" class="edge">
<title>Group&#45;&gt;Team</title>
<path fill="none" stroke="#5d2cc0" d="M437.7035,-714.4559C464.279,-662.179 502.8752,-586.2562 529.5019,-533.8787"/>
<polygon fill="#5d2cc0" stroke="#5d2cc0" points="437.6608,-714.5399 429.1177,-721.4148 435.395,-718.997 433.1291,-723.4541 433.1291,-723.4541 433.1291,-723.4541 435.395,-718.997 437.1405,-725.4934 437.6608,-714.5399 437.6608,-714.5399"/>
<polygon fill="#5d2cc0" stroke="#5d2cc0" points="529.6316,-533.6234 538.1748,-526.7484 531.8975,-529.1663 534.1634,-524.7091 534.1634,-524.7091 534.1634,-524.7091 531.8975,-529.1663 530.1519,-522.6699 529.6316,-533.6234 529.6316,-533.6234"/>
</g>
<!-- Player -->
<g id="node6" class="node">
<title>Player</title>
<path fill="none" stroke="#000000" d="M633.8254,-49.5C633.8254,-49.5 857.55,-49.5 857.55,-49.5 863.55,-49.5 869.55,-55.5 869.55,-61.5 869.55,-61.5 869.55,-151.5 869.55,-151.5 869.55,-157.5 863.55,-163.5 857.55,-163.5 857.55,-163.5 633.8254,-163.5 633.8254,-163.5 627.8254,-163.5 621.8254,-157.5 621.8254,-151.5 621.8254,-151.5 621.8254,-61.5 621.8254,-61.5 621.8254,-55.5 627.8254,-49.5 633.8254,-49.5"/>
<text text-anchor="middle" x="745.6877" y="-148.3" font-family="Times,serif" font-size="14.00" fill="#000000">Player</text>
<polyline fill="none" stroke="#000000" points="621.8254,-141.5 869.55,-141.5 "/>
<text text-anchor="start" x="629.8254" y="-126.3" font-family="Times,serif" font-size="14.00" fill="#000000">id :integer</text>
<text text-anchor="start" x="629.8254" y="-112.3" font-family="Times,serif" font-size="14.00" fill="#000000">user_id :integer</text>
<text text-anchor="start" x="629.8254" y="-98.3" font-family="Times,serif" font-size="14.00" fill="#000000">tournament_id :integer</text>
<text text-anchor="start" x="629.8254" y="-84.3" font-family="Times,serif" font-size="14.00" fill="#000000">created_at :timestamp without time zone</text>
<text text-anchor="start" x="629.8254" y="-70.3" font-family="Times,serif" font-size="14.00" fill="#000000">updated_at :timestamp without time zone</text>
<text text-anchor="start" x="629.8254" y="-56.3" font-family="Times,serif" font-size="14.00" fill="#000000">team_id :integer</text>
</g>
<!-- Team&#45;&gt;GroupsTeam -->
<g id="edge7" class="edge">
<title>Team&#45;&gt;GroupsTeam</title>
<path fill="none" stroke="#e3f6c9" d="M566.7941,-416.2566C570.9682,-366.1198 572.4263,-292.3732 554.6877,-231 548.8472,-210.7926 538.8581,-190.5444 528.0413,-172.4246"/>
<ellipse fill="none" stroke="#e3f6c9" cx="566.4264" cy="-420.4198" rx="4" ry="4"/>
<polygon fill="#e3f6c9" stroke="#e3f6c9" points="527.9197,-172.2269 526.512,-161.3517 525.2995,-167.9684 522.6794,-163.7099 522.6794,-163.7099 522.6794,-163.7099 525.2995,-167.9684 518.8467,-166.0681 527.9197,-172.2269 527.9197,-172.2269"/>
</g>
<!-- Team&#45;&gt;Match -->
<g id="edge5" class="edge">
<title>Team&#45;&gt;Match</title>
<path fill="none" stroke="#61e500" d="M528.4734,-417.3042C498.8998,-368.6631 449.943,-300.8555 388.6877,-263 356.9653,-243.3956 337.5615,-265.986 306.7356,-245 296.5327,-238.0539 287.1484,-229.5832 278.593,-220.2878"/>
<ellipse fill="none" stroke="#61e500" cx="530.6362" cy="-420.9064" rx="4" ry="4"/>
<polygon fill="#61e500" stroke="#61e500" points="278.5044,-220.1868 275.2923,-209.7019 275.207,-216.4282 271.9096,-212.6696 271.9096,-212.6696 271.9096,-212.6696 275.207,-216.4282 268.5268,-215.6373 278.5044,-220.1868 278.5044,-220.1868"/>
<text text-anchor="middle" x="363.6638" y="-233.8" font-family="Times,serif" font-size="14.00" fill="#000000">matches_as_team_a</text>
</g>
<!-- Team&#45;&gt;Match -->
<g id="edge6" class="edge">
<title>Team&#45;&gt;Match</title>
<path fill="none" stroke="#a7053b" d="M541.2185,-416.7638C520.3456,-360.858 480.9287,-277.8704 418.6877,-231 392.3385,-211.1577 376.2426,-227.6462 346.6877,-213 346.5925,-212.9528 346.4972,-212.9055 346.402,-212.8582"/>
<ellipse fill="none" stroke="#a7053b" cx="542.6647" cy="-420.7103" rx="4" ry="4"/>
<polygon fill="#a7053b" stroke="#a7053b" points="346.4287,-212.8721 339.6496,-204.2527 341.9971,-210.5566 337.5656,-208.2411 337.5656,-208.2411 337.5656,-208.2411 341.9971,-210.5566 335.4816,-212.2294 346.4287,-212.8721 346.4287,-212.8721"/>
<text text-anchor="middle" x="487.0569" y="-233.8" font-family="Times,serif" font-size="14.00" fill="#000000">matches_as_team_b</text>
</g>
<!-- Team&#45;&gt;Player -->
<g id="edge4" class="edge">
<title>Team&#45;&gt;Player</title>
<path fill="none" stroke="#9faed1" d="M588.6885,-417.1223C622.113,-350.9919 676.9529,-242.4916 712.1748,-172.8051"/>
<ellipse fill="none" stroke="#9faed1" cx="586.7705" cy="-420.917" rx="4" ry="4"/>
<polygon fill="#9faed1" stroke="#9faed1" points="712.2857,-172.5856 720.8128,-165.6908 714.5412,-168.1232 716.7967,-163.6608 716.7967,-163.6608 716.7967,-163.6608 714.5412,-168.1232 712.7805,-161.6309 712.2857,-172.5856 712.2857,-172.5856"/>
</g>
<!-- Tournament -->
<g id="node8" class="node">
<title>Tournament</title>
<path fill="none" stroke="#000000" d="M409.8254,-861.5C409.8254,-861.5 633.55,-861.5 633.55,-861.5 639.55,-861.5 645.55,-867.5 645.55,-873.5 645.55,-873.5 645.55,-935.5 645.55,-935.5 645.55,-941.5 639.55,-947.5 633.55,-947.5 633.55,-947.5 409.8254,-947.5 409.8254,-947.5 403.8254,-947.5 397.8254,-941.5 397.8254,-935.5 397.8254,-935.5 397.8254,-873.5 397.8254,-873.5 397.8254,-867.5 403.8254,-861.5 409.8254,-861.5"/>
<text text-anchor="middle" x="521.6877" y="-932.3" font-family="Times,serif" font-size="14.00" fill="#000000">Tournament</text>
<polyline fill="none" stroke="#000000" points="397.8254,-925.5 645.55,-925.5 "/>
<text text-anchor="start" x="405.8254" y="-910.3" font-family="Times,serif" font-size="14.00" fill="#000000">id :integer</text>
<text text-anchor="start" x="405.8254" y="-896.3" font-family="Times,serif" font-size="14.00" fill="#000000">name :character varying</text>
<text text-anchor="start" x="405.8254" y="-882.3" font-family="Times,serif" font-size="14.00" fill="#000000">created_at :timestamp without time zone</text>
<text text-anchor="start" x="405.8254" y="-868.3" font-family="Times,serif" font-size="14.00" fill="#000000">updated_at :timestamp without time zone</text>
</g>
<!-- Tournament&#45;&gt;Group -->
<g id="edge8" class="edge">
<title>Tournament&#45;&gt;Group</title>
<path fill="none" stroke="#e22ac3" d="M478.5468,-854.9258C471.8396,-847.2184 464.8599,-839.1978 458.0105,-831.327"/>
<ellipse fill="none" stroke="#e22ac3" cx="481.4181" cy="-858.2252" rx="4" ry="4"/>
<polygon fill="#e22ac3" stroke="#e22ac3" points="457.7842,-831.067 454.6142,-820.5693 454.5019,-827.2952 451.2195,-823.5234 451.2195,-823.5234 451.2195,-823.5234 454.5019,-827.2952 447.8249,-826.4775 457.7842,-831.067 457.7842,-831.067"/>
</g>
<!-- Tournament&#45;&gt;Match -->
<g id="edge11" class="edge">
<title>Tournament&#45;&gt;Match</title>
<path fill="none" stroke="#7a9aa3" d="M388.2765,-860.9141C238.1111,-813.4538 155.9969,-821.3058 87.6877,-686 2.961,-518.1745 25.1827,-440.3052 87.6877,-263 92.7298,-248.6974 99.6934,-234.7389 107.7805,-221.4203"/>
<polygon fill="#7a9aa3" stroke="#7a9aa3" points="388.2769,-860.9141 396.4237,-868.2545 393.0378,-862.4419 397.7987,-863.9697 397.7987,-863.9697 397.7987,-863.9697 393.0378,-862.4419 399.1737,-859.6849 388.2769,-860.9141 388.2769,-860.9141"/>
<polygon fill="#7a9aa3" stroke="#7a9aa3" points="107.9081,-221.2182 117.0529,-215.1663 110.5782,-216.9908 113.2482,-212.7633 113.2482,-212.7633 113.2482,-212.7633 110.5782,-216.9908 109.4435,-210.3603 107.9081,-221.2182 107.9081,-221.2182"/>
</g>
<!-- Tournament&#45;&gt;Player -->
<g id="edge10" class="edge">
<title>Tournament&#45;&gt;Player</title>
<path fill="none" stroke="#a85403" d="M573.9093,-855.4218C613.9322,-814.3321 666.5865,-751.9572 692.6877,-686 727.4158,-598.2431 721.9632,-356.9744 730.6877,-263 733.4069,-233.7117 736.4948,-201.3489 739.1592,-173.6902"/>
<ellipse fill="none" stroke="#a85403" cx="570.9055" cy="-858.4759" rx="4" ry="4"/>
<polygon fill="#a85403" stroke="#a85403" points="739.16,-173.6811 744.5994,-164.1594 739.6401,-168.7042 740.1202,-163.7273 740.1202,-163.7273 740.1202,-163.7273 739.6401,-168.7042 735.641,-163.2952 739.16,-173.6811 739.16,-173.6811"/>
</g>
<!-- Tournament&#45;&gt;Team -->
<g id="edge9" class="edge">
<title>Tournament&#45;&gt;Team</title>
<path fill="none" stroke="#3689d8" d="M535.2039,-853.3081C537.3502,-843.6312 539.3123,-833.5494 540.6877,-824 555.1899,-723.3118 558.8501,-604.8548 559.6467,-534.9249"/>
<ellipse fill="none" stroke="#3689d8" cx="534.2607" cy="-857.4221" rx="4" ry="4"/>
<polygon fill="#3689d8" stroke="#3689d8" points="559.6503,-534.5475 564.2476,-524.5919 559.699,-529.5478 559.7478,-524.548 559.7478,-524.548 559.7478,-524.548 559.699,-529.5478 555.248,-524.5041 559.6503,-534.5475 559.6503,-534.5475"/>
</g>
<!-- User -->
<g id="node9" class="node">
<title>User</title>
<path fill="none" stroke="#000000" d="M752.053,-263.5C752.053,-263.5 1047.3225,-263.5 1047.3225,-263.5 1053.3225,-263.5 1059.3225,-269.5 1059.3225,-275.5 1059.3225,-275.5 1059.3225,-673.5 1059.3225,-673.5 1059.3225,-679.5 1053.3225,-685.5 1047.3225,-685.5 1047.3225,-685.5 752.053,-685.5 752.053,-685.5 746.053,-685.5 740.053,-679.5 740.053,-673.5 740.053,-673.5 740.053,-275.5 740.053,-275.5 740.053,-269.5 746.053,-263.5 752.053,-263.5"/>
<text text-anchor="middle" x="899.6877" y="-670.3" font-family="Times,serif" font-size="14.00" fill="#000000">User</text>
<polyline fill="none" stroke="#000000" points="740.053,-663.5 1059.3225,-663.5 "/>
<text text-anchor="start" x="748.053" y="-648.3" font-family="Times,serif" font-size="14.00" fill="#000000">slug :character varying</text>
<text text-anchor="start" x="748.053" y="-634.3" font-family="Times,serif" font-size="14.00" fill="#000000">provider :character varying</text>
<text text-anchor="start" x="748.053" y="-620.3" font-family="Times,serif" font-size="14.00" fill="#000000">uid :character varying</text>
<text text-anchor="start" x="748.053" y="-606.3" font-family="Times,serif" font-size="14.00" fill="#000000">encrypted_password :character varying</text>
<text text-anchor="start" x="748.053" y="-592.3" font-family="Times,serif" font-size="14.00" fill="#000000">reset_password_token :character varying</text>
<text text-anchor="start" x="748.053" y="-578.3" font-family="Times,serif" font-size="14.00" fill="#000000">reset_password_sent_at :timestamp without time zone</text>
<text text-anchor="start" x="748.053" y="-564.3" font-family="Times,serif" font-size="14.00" fill="#000000">remember_created_at :timestamp without time zone</text>
<text text-anchor="start" x="748.053" y="-550.3" font-family="Times,serif" font-size="14.00" fill="#000000">sign_in_count :integer</text>
<text text-anchor="start" x="748.053" y="-536.3" font-family="Times,serif" font-size="14.00" fill="#000000">current_sign_in_at :timestamp without time zone</text>
<text text-anchor="start" x="748.053" y="-522.3" font-family="Times,serif" font-size="14.00" fill="#000000">last_sign_in_at :timestamp without time zone</text>
<text text-anchor="start" x="748.053" y="-508.3" font-family="Times,serif" font-size="14.00" fill="#000000">current_sign_in_ip :character varying</text>
<text text-anchor="start" x="748.053" y="-494.3" font-family="Times,serif" font-size="14.00" fill="#000000">last_sign_in_ip :character varying</text>
<text text-anchor="start" x="748.053" y="-480.3" font-family="Times,serif" font-size="14.00" fill="#000000">confirmation_token :character varying</text>
<text text-anchor="start" x="748.053" y="-466.3" font-family="Times,serif" font-size="14.00" fill="#000000">confirmed_at :timestamp without time zone</text>
<text text-anchor="start" x="748.053" y="-452.3" font-family="Times,serif" font-size="14.00" fill="#000000">confirmation_sent_at :timestamp without time zone</text>
<text text-anchor="start" x="748.053" y="-438.3" font-family="Times,serif" font-size="14.00" fill="#000000">unconfirmed_email :character varying</text>
<text text-anchor="start" x="748.053" y="-424.3" font-family="Times,serif" font-size="14.00" fill="#000000">name :character varying</text>
<text text-anchor="start" x="748.053" y="-410.3" font-family="Times,serif" font-size="14.00" fill="#000000">nickname :character varying</text>
<text text-anchor="start" x="748.053" y="-396.3" font-family="Times,serif" font-size="14.00" fill="#000000">image :character varying</text>
<text text-anchor="start" x="748.053" y="-382.3" font-family="Times,serif" font-size="14.00" fill="#000000">email :character varying</text>
<text text-anchor="start" x="748.053" y="-368.3" font-family="Times,serif" font-size="14.00" fill="#000000">tokens :json</text>
<text text-anchor="start" x="748.053" y="-354.3" font-family="Times,serif" font-size="14.00" fill="#000000">created_at :timestamp without time zone</text>
<text text-anchor="start" x="748.053" y="-340.3" font-family="Times,serif" font-size="14.00" fill="#000000">updated_at :timestamp without time zone</text>
<text text-anchor="start" x="748.053" y="-326.3" font-family="Times,serif" font-size="14.00" fill="#000000">phone_number :character varying</text>
<text text-anchor="start" x="748.053" y="-312.3" font-family="Times,serif" font-size="14.00" fill="#000000">skill_level :integer</text>
<text text-anchor="start" x="748.053" y="-298.3" font-family="Times,serif" font-size="14.00" fill="#000000">address :text</text>
<text text-anchor="start" x="748.053" y="-284.3" font-family="Times,serif" font-size="14.00" fill="#000000">note :text</text>
<text text-anchor="start" x="748.053" y="-270.3" font-family="Times,serif" font-size="14.00" fill="#000000">id :integer</text>
</g>
<!-- User&#45;&gt;Player -->
<g id="edge12" class="edge">
<title>User&#45;&gt;Player</title>
<path fill="none" stroke="#a22dc0" d="M808.1005,-255.6421C795.5669,-225.6918 783.5686,-197.0205 773.5002,-172.9609"/>
<ellipse fill="none" stroke="#a22dc0" cx="809.7884" cy="-259.6757" rx="4" ry="4"/>
<polygon fill="#a22dc0" stroke="#a22dc0" points="773.4564,-172.8561 773.7471,-161.8941 771.5262,-168.2437 769.5959,-163.6313 769.5959,-163.6313 769.5959,-163.6313 771.5262,-168.2437 765.4448,-165.3685 773.4564,-172.8561 773.4564,-172.8561"/>
</g>
<!-- Venue -->
<g id="node10" class="node">
<title>Venue</title>
<path fill="none" stroke="#000000" d="M143.8254,-431.5C143.8254,-431.5 367.55,-431.5 367.55,-431.5 373.55,-431.5 379.55,-437.5 379.55,-443.5 379.55,-443.5 379.55,-505.5 379.55,-505.5 379.55,-511.5 373.55,-517.5 367.55,-517.5 367.55,-517.5 143.8254,-517.5 143.8254,-517.5 137.8254,-517.5 131.8254,-511.5 131.8254,-505.5 131.8254,-505.5 131.8254,-443.5 131.8254,-443.5 131.8254,-437.5 137.8254,-431.5 143.8254,-431.5"/>
<text text-anchor="middle" x="255.6877" y="-502.3" font-family="Times,serif" font-size="14.00" fill="#000000">Venue</text>
<polyline fill="none" stroke="#000000" points="131.8254,-495.5 379.55,-495.5 "/>
<text text-anchor="start" x="139.8254" y="-480.3" font-family="Times,serif" font-size="14.00" fill="#000000">id :integer</text>
<text text-anchor="start" x="139.8254" y="-466.3" font-family="Times,serif" font-size="14.00" fill="#000000">name :character varying</text>
<text text-anchor="start" x="139.8254" y="-452.3" font-family="Times,serif" font-size="14.00" fill="#000000">created_at :timestamp without time zone</text>
<text text-anchor="start" x="139.8254" y="-438.3" font-family="Times,serif" font-size="14.00" fill="#000000">updated_at :timestamp without time zone</text>
</g>
<!-- Venue&#45;&gt;Match -->
<g id="edge13" class="edge">
<title>Venue&#45;&gt;Match</title>
<path fill="none" stroke="#475d52" d="M249.8225,-423.1094C243.929,-371.471 234.6429,-290.1069 226.9602,-222.7923"/>
<ellipse fill="none" stroke="#475d52" cx="250.2927" cy="-427.2294" rx="4" ry="4"/>
<polygon fill="#475d52" stroke="#475d52" points="226.9245,-222.4781 230.2614,-212.0322 226.3574,-217.5103 225.7904,-212.5425 225.7904,-212.5425 225.7904,-212.5425 226.3574,-217.5103 221.3195,-213.0529 226.9245,-222.4781 226.9245,-222.4781"/>
</g>
</g>
</svg>
