<?xml version="1.0" encoding="UTF-8" standalone="no"?>
<!DOCTYPE svg PUBLIC "-//W3C//DTD SVG 1.1//EN"
 "http://www.w3.org/Graphics/SVG/1.1/DTD/svg11.dtd">
<!-- Generated by graphviz version 2.38.0 (20140413.2041)
 -->
<!-- Title: controllers_diagram Pages: 1 -->
<svg width="324pt" height="209pt"
 viewBox="0.00 0.00 324.00 208.50" xmlns="http://www.w3.org/2000/svg" xmlns:xlink="http://www.w3.org/1999/xlink">
<g id="graph0" class="graph" transform="scale(1 1) rotate(0) translate(124 159.5)">
<title>controllers_diagram</title>
<polygon fill="none" stroke="none" points="-124,49 -124,-159.5 200,-159.5 200,49 -124,49"/>
<!-- _diagram_info -->
<g id="node1" class="node"><title>_diagram_info</title>
<text text-anchor="start" x="-112" y="-18.6" font-family="Times,serif" font-size="13.00">Controllers diagram</text>
<text text-anchor="start" x="-112" y="-4.6" font-family="Times,serif" font-size="13.00">Date: Apr 14 2017 &#45; 17:05</text>
<text text-anchor="start" x="-112" y="9.4" font-family="Times,serif" font-size="13.00">Migration version: 20170414094451</text>
<text text-anchor="start" x="-112" y="23.4" font-family="Times,serif" font-size="13.00">Generated by RailRoady 1.5.2</text>
<text text-anchor="start" x="-112" y="37.4" font-family="Times,serif" font-size="13.00">http://railroady.prestonlee.com</text>
</g>
<!-- ApplicationController -->
<g id="node2" class="node"><title>ApplicationController</title>
<path fill="none" stroke="black" d="M72,-61C72,-61 184,-61 184,-61 190,-61 196,-67 196,-73 196,-73 196,-143 196,-143 196,-149 190,-155 184,-155 184,-155 72,-155 72,-155 66,-155 60,-149 60,-143 60,-143 60,-73 60,-73 60,-67 66,-61 72,-61"/>
<text text-anchor="middle" x="128" y="-139.8" font-family="Times,serif" font-size="14.00">ApplicationController</text>
<polyline fill="none" stroke="black" points="60,-132 196,-132 "/>
<polyline fill="none" stroke="black" points="60,-108 196,-108 "/>
<polyline fill="none" stroke="black" points="60,-84 196,-84 "/>
<text text-anchor="start" x="68" y="-68.8" font-family="Times,serif" font-size="14.00">_layout</text>
</g>
</g>
</svg>
