<?xml version="1.0" encoding="UTF-8" standalone="no"?>
<!DOCTYPE svg PUBLIC "-//W3C//DTD SVG 1.1//EN"
 "http://www.w3.org/Graphics/SVG/1.1/DTD/svg11.dtd">
<!-- Generated by graphviz version 2.38.0 (20140413.2041)
 -->
<!-- Title: models_diagram Pages: 1 -->
<svg width="958pt" height="874pt"
 viewBox="0.00 0.00 957.50 874.00" xmlns="http://www.w3.org/2000/svg" xmlns:xlink="http://www.w3.org/1999/xlink">
<g id="graph0" class="graph" transform="scale(1 1) rotate(0) translate(4 870)">
<title>models_diagram</title>
<polygon fill="none" stroke="none" points="-4,4 -4,-870 953.5,-870 953.5,4 -4,4"/>
<!-- _diagram_info -->
<g id="node1" class="node"><title>_diagram_info</title>
<text text-anchor="start" x="47.5" y="-844.6" font-family="Times,serif" font-size="13.00">Models diagram</text>
<text text-anchor="start" x="47.5" y="-830.6" font-family="Times,serif" font-size="13.00">Date: Apr 14 2017 &#45; 17:04</text>
<text text-anchor="start" x="47.5" y="-816.6" font-family="Times,serif" font-size="13.00">Migration version: 20170414094451</text>
<text text-anchor="start" x="47.5" y="-802.6" font-family="Times,serif" font-size="13.00">Generated by RailRoady 1.5.2</text>
<text text-anchor="start" x="47.5" y="-788.6" font-family="Times,serif" font-size="13.00">http://railroady.prestonlee.com</text>
</g>
<!-- ApplicationRecord -->
<g id="node2" class="node"><title>ApplicationRecord</title>
<ellipse fill="none" stroke="black" cx="348.5" cy="-820" rx="77.1866" ry="18"/>
<text text-anchor="middle" x="348.5" y="-816.3" font-family="Times,serif" font-size="14.00">ApplicationRecord</text>
</g>
<!-- Group -->
<g id="node3" class="node"><title>Group</title>
<path fill="none" stroke="black" d="M305.5,-631.5C305.5,-631.5 525.5,-631.5 525.5,-631.5 531.5,-631.5 537.5,-637.5 537.5,-643.5 537.5,-643.5 537.5,-725.5 537.5,-725.5 537.5,-731.5 531.5,-737.5 525.5,-737.5 525.5,-737.5 305.5,-737.5 305.5,-737.5 299.5,-737.5 293.5,-731.5 293.5,-725.5 293.5,-725.5 293.5,-643.5 293.5,-643.5 293.5,-637.5 299.5,-631.5 305.5,-631.5"/>
<text text-anchor="middle" x="415.5" y="-722.3" font-family="Times,serif" font-size="14.00">Group</text>
<polyline fill="none" stroke="black" points="293.5,-714.5 537.5,-714.5 "/>
<text text-anchor="start" x="301.5" y="-699.3" font-family="Times,serif" font-size="14.00">id :integer</text>
<text text-anchor="start" x="301.5" y="-684.3" font-family="Times,serif" font-size="14.00">tournament_id :integer</text>
<text text-anchor="start" x="301.5" y="-669.3" font-family="Times,serif" font-size="14.00">name :character varying</text>
<text text-anchor="start" x="301.5" y="-654.3" font-family="Times,serif" font-size="14.00">created_at :timestamp without time zone</text>
<text text-anchor="start" x="301.5" y="-639.3" font-family="Times,serif" font-size="14.00">updated_at :timestamp without time zone</text>
</g>
<!-- Team -->
<g id="node4" class="node"><title>Team</title>
<path fill="none" stroke="black" d="M343.5,-323.5C343.5,-323.5 563.5,-323.5 563.5,-323.5 569.5,-323.5 575.5,-329.5 575.5,-335.5 575.5,-335.5 575.5,-417.5 575.5,-417.5 575.5,-423.5 569.5,-429.5 563.5,-429.5 563.5,-429.5 343.5,-429.5 343.5,-429.5 337.5,-429.5 331.5,-423.5 331.5,-417.5 331.5,-417.5 331.5,-335.5 331.5,-335.5 331.5,-329.5 337.5,-323.5 343.5,-323.5"/>
<text text-anchor="middle" x="453.5" y="-414.3" font-family="Times,serif" font-size="14.00">Team</text>
<polyline fill="none" stroke="black" points="331.5,-406.5 575.5,-406.5 "/>
<text text-anchor="start" x="339.5" y="-391.3" font-family="Times,serif" font-size="14.00">id :integer</text>
<text text-anchor="start" x="339.5" y="-376.3" font-family="Times,serif" font-size="14.00">name :character varying</text>
<text text-anchor="start" x="339.5" y="-361.3" font-family="Times,serif" font-size="14.00">created_at :timestamp without time zone</text>
<text text-anchor="start" x="339.5" y="-346.3" font-family="Times,serif" font-size="14.00">updated_at :timestamp without time zone</text>
<text text-anchor="start" x="339.5" y="-331.3" font-family="Times,serif" font-size="14.00">tournament_id :integer</text>
</g>
<!-- Group&#45;&gt;Team -->
<g id="edge1" class="edge"><title>Group&#45;&gt;Team</title>
<path fill="none" stroke="#2e9858" d="M422.999,-623.114C429.588,-570.051 439.137,-493.16 445.789,-439.594"/>
<ellipse fill="none" stroke="#2e9858" cx="422.482" cy="-627.275" rx="4.00001" ry="4.00001"/>
<polygon fill="#2e9858" stroke="#2e9858" points="445.805,-439.464 451.503,-430.095 446.421,-434.502 447.038,-429.54 447.038,-429.54 447.038,-429.54 446.421,-434.502 442.572,-428.985 445.805,-439.464 445.805,-439.464"/>
</g>
<!-- Player -->
<g id="node5" class="node"><title>Player</title>
<path fill="none" stroke="black" d="M343.5,-0.5C343.5,-0.5 563.5,-0.5 563.5,-0.5 569.5,-0.5 575.5,-6.5 575.5,-12.5 575.5,-12.5 575.5,-109.5 575.5,-109.5 575.5,-115.5 569.5,-121.5 563.5,-121.5 563.5,-121.5 343.5,-121.5 343.5,-121.5 337.5,-121.5 331.5,-115.5 331.5,-109.5 331.5,-109.5 331.5,-12.5 331.5,-12.5 331.5,-6.5 337.5,-0.5 343.5,-0.5"/>
<text text-anchor="middle" x="453.5" y="-106.3" font-family="Times,serif" font-size="14.00">Player</text>
<polyline fill="none" stroke="black" points="331.5,-98.5 575.5,-98.5 "/>
<text text-anchor="start" x="339.5" y="-83.3" font-family="Times,serif" font-size="14.00">id :integer</text>
<text text-anchor="start" x="339.5" y="-68.3" font-family="Times,serif" font-size="14.00">user_id :integer</text>
<text text-anchor="start" x="339.5" y="-53.3" font-family="Times,serif" font-size="14.00">tournament_id :integer</text>
<text text-anchor="start" x="339.5" y="-38.3" font-family="Times,serif" font-size="14.00">created_at :timestamp without time zone</text>
<text text-anchor="start" x="339.5" y="-23.3" font-family="Times,serif" font-size="14.00">updated_at :timestamp without time zone</text>
<text text-anchor="start" x="339.5" y="-8.3" font-family="Times,serif" font-size="14.00">team_id :integer</text>
</g>
<!-- Team&#45;&gt;Player -->
<g id="edge2" class="edge"><title>Team&#45;&gt;Player</title>
<path fill="none" stroke="#cda7f0" d="M453.5,-315.363C453.5,-262.935 453.5,-186.87 453.5,-131.777"/>
<ellipse fill="none" stroke="#cda7f0" cx="453.5" cy="-319.38" rx="4" ry="4"/>
<polygon fill="#cda7f0" stroke="#cda7f0" points="453.5,-131.745 458,-121.745 453.5,-126.745 453.5,-121.745 453.5,-121.745 453.5,-121.745 453.5,-126.745 449,-121.745 453.5,-131.745 453.5,-131.745"/>
</g>
<!-- Venue -->
<g id="node6" class="node"><title>Venue</title>
<path fill="none" stroke="black" d="M717.5,-774.5C717.5,-774.5 937.5,-774.5 937.5,-774.5 943.5,-774.5 949.5,-780.5 949.5,-786.5 949.5,-786.5 949.5,-853.5 949.5,-853.5 949.5,-859.5 943.5,-865.5 937.5,-865.5 937.5,-865.5 717.5,-865.5 717.5,-865.5 711.5,-865.5 705.5,-859.5 705.5,-853.5 705.5,-853.5 705.5,-786.5 705.5,-786.5 705.5,-780.5 711.5,-774.5 717.5,-774.5"/>
<text text-anchor="middle" x="827.5" y="-850.3" font-family="Times,serif" font-size="14.00">Venue</text>
<polyline fill="none" stroke="black" points="705.5,-842.5 949.5,-842.5 "/>
<text text-anchor="start" x="713.5" y="-827.3" font-family="Times,serif" font-size="14.00">id :integer</text>
<text text-anchor="start" x="713.5" y="-812.3" font-family="Times,serif" font-size="14.00">name :character varying</text>
<text text-anchor="start" x="713.5" y="-797.3" font-family="Times,serif" font-size="14.00">created_at :timestamp without time zone</text>
<text text-anchor="start" x="713.5" y="-782.3" font-family="Times,serif" font-size="14.00">updated_at :timestamp without time zone</text>
</g>
<!-- User -->
<g id="node7" class="node"><title>User</title>
<path fill="none" stroke="black" d="M12,-158.5C12,-158.5 301,-158.5 301,-158.5 307,-158.5 313,-164.5 313,-170.5 313,-170.5 313,-582.5 313,-582.5 313,-588.5 307,-594.5 301,-594.5 301,-594.5 12,-594.5 12,-594.5 6,-594.5 0,-588.5 0,-582.5 0,-582.5 0,-170.5 0,-170.5 0,-164.5 6,-158.5 12,-158.5"/>
<text text-anchor="middle" x="156.5" y="-579.3" font-family="Times,serif" font-size="14.00">User</text>
<polyline fill="none" stroke="black" points="0,-571.5 313,-571.5 "/>
<text text-anchor="start" x="8" y="-556.3" font-family="Times,serif" font-size="14.00">id :integer</text>
<text text-anchor="start" x="8" y="-541.3" font-family="Times,serif" font-size="14.00">provider :character varying</text>
<text text-anchor="start" x="8" y="-526.3" font-family="Times,serif" font-size="14.00">uid :character varying</text>
<text text-anchor="start" x="8" y="-511.3" font-family="Times,serif" font-size="14.00">encrypted_password :character varying</text>
<text text-anchor="start" x="8" y="-496.3" font-family="Times,serif" font-size="14.00">reset_password_token :character varying</text>
<text text-anchor="start" x="8" y="-481.3" font-family="Times,serif" font-size="14.00">reset_password_sent_at :timestamp without time zone</text>
<text text-anchor="start" x="8" y="-466.3" font-family="Times,serif" font-size="14.00">remember_created_at :timestamp without time zone</text>
<text text-anchor="start" x="8" y="-451.3" font-family="Times,serif" font-size="14.00">sign_in_count :integer</text>
<text text-anchor="start" x="8" y="-436.3" font-family="Times,serif" font-size="14.00">current_sign_in_at :timestamp without time zone</text>
<text text-anchor="start" x="8" y="-421.3" font-family="Times,serif" font-size="14.00">last_sign_in_at :timestamp without time zone</text>
<text text-anchor="start" x="8" y="-406.3" font-family="Times,serif" font-size="14.00">current_sign_in_ip :character varying</text>
<text text-anchor="start" x="8" y="-391.3" font-family="Times,serif" font-size="14.00">last_sign_in_ip :character varying</text>
<text text-anchor="start" x="8" y="-376.3" font-family="Times,serif" font-size="14.00">confirmation_token :character varying</text>
<text text-anchor="start" x="8" y="-361.3" font-family="Times,serif" font-size="14.00">confirmed_at :timestamp without time zone</text>
<text text-anchor="start" x="8" y="-346.3" font-family="Times,serif" font-size="14.00">confirmation_sent_at :timestamp without time zone</text>
<text text-anchor="start" x="8" y="-331.3" font-family="Times,serif" font-size="14.00">unconfirmed_email :character varying</text>
<text text-anchor="start" x="8" y="-316.3" font-family="Times,serif" font-size="14.00">name :character varying</text>
<text text-anchor="start" x="8" y="-301.3" font-family="Times,serif" font-size="14.00">nickname :character varying</text>
<text text-anchor="start" x="8" y="-286.3" font-family="Times,serif" font-size="14.00">image :character varying</text>
<text text-anchor="start" x="8" y="-271.3" font-family="Times,serif" font-size="14.00">email :character varying</text>
<text text-anchor="start" x="8" y="-256.3" font-family="Times,serif" font-size="14.00">tokens :json</text>
<text text-anchor="start" x="8" y="-241.3" font-family="Times,serif" font-size="14.00">created_at :timestamp without time zone</text>
<text text-anchor="start" x="8" y="-226.3" font-family="Times,serif" font-size="14.00">updated_at :timestamp without time zone</text>
<text text-anchor="start" x="8" y="-211.3" font-family="Times,serif" font-size="14.00">phone_number :character varying</text>
<text text-anchor="start" x="8" y="-196.3" font-family="Times,serif" font-size="14.00">skill_level :integer</text>
<text text-anchor="start" x="8" y="-181.3" font-family="Times,serif" font-size="14.00">address :text</text>
<text text-anchor="start" x="8" y="-166.3" font-family="Times,serif" font-size="14.00">note :text</text>
</g>
<!-- User&#45;&gt;Player -->
<g id="edge3" class="edge"><title>User&#45;&gt;Player</title>
<path fill="none" stroke="#e7411d" d="M318.975,-161.487C320.149,-160.316 321.324,-159.154 322.5,-158 333.069,-147.635 344.812,-137.484 356.804,-127.895"/>
<ellipse fill="none" stroke="#e7411d" cx="315.935" cy="-164.562" rx="4.00002" ry="4.00002"/>
<polygon fill="#e7411d" stroke="#e7411d" points="356.849,-127.859 367.492,-125.216 360.78,-124.769 364.71,-121.678 364.71,-121.678 364.71,-121.678 360.78,-124.769 361.929,-118.141 356.849,-127.859 356.849,-127.859"/>
</g>
<!-- Tournament -->
<g id="node8" class="node"><title>Tournament</title>
<path fill="none" stroke="black" d="M455.5,-774.5C455.5,-774.5 675.5,-774.5 675.5,-774.5 681.5,-774.5 687.5,-780.5 687.5,-786.5 687.5,-786.5 687.5,-853.5 687.5,-853.5 687.5,-859.5 681.5,-865.5 675.5,-865.5 675.5,-865.5 455.5,-865.5 455.5,-865.5 449.5,-865.5 443.5,-859.5 443.5,-853.5 443.5,-853.5 443.5,-786.5 443.5,-786.5 443.5,-780.5 449.5,-774.5 455.5,-774.5"/>
<text text-anchor="middle" x="565.5" y="-850.3" font-family="Times,serif" font-size="14.00">Tournament</text>
<polyline fill="none" stroke="black" points="443.5,-842.5 687.5,-842.5 "/>
<text text-anchor="start" x="451.5" y="-827.3" font-family="Times,serif" font-size="14.00">id :integer</text>
<text text-anchor="start" x="451.5" y="-812.3" font-family="Times,serif" font-size="14.00">name :character varying</text>
<text text-anchor="start" x="451.5" y="-797.3" font-family="Times,serif" font-size="14.00">created_at :timestamp without time zone</text>
<text text-anchor="start" x="451.5" y="-782.3" font-family="Times,serif" font-size="14.00">updated_at :timestamp without time zone</text>
</g>
<!-- Tournament&#45;&gt;Group -->
<g id="edge4" class="edge"><title>Tournament&#45;&gt;Group</title>
<path fill="none" stroke="#9012d7" d="M508.875,-768.603C499.974,-760.681 490.705,-752.432 481.612,-744.34"/>
<ellipse fill="none" stroke="#9012d7" cx="512.147" cy="-771.516" rx="4.00002" ry="4.00002"/>
<polygon fill="#9012d7" stroke="#9012d7" points="481.498,-744.239 477.02,-734.229 477.763,-740.914 474.028,-737.59 474.028,-737.59 474.028,-737.59 477.763,-740.914 471.037,-740.952 481.498,-744.239 481.498,-744.239"/>
</g>
<!-- Tournament&#45;&gt;Team -->
<g id="edge5" class="edge"><title>Tournament&#45;&gt;Team</title>
<path fill="none" stroke="#e02323" d="M563.694,-766.06C561.542,-728.072 556.827,-675.88 546.5,-631 530.995,-563.618 502.485,-489.731 481.103,-439.203"/>
<ellipse fill="none" stroke="#e02323" cx="563.926" cy="-770.432" rx="4" ry="4"/>
<polygon fill="#e02323" stroke="#e02323" points="480.987,-438.93 481.202,-427.966 479.025,-434.331 477.063,-429.732 477.063,-429.732 477.063,-429.732 479.025,-434.331 472.924,-431.498 480.987,-438.93 480.987,-438.93"/>
</g>
<!-- Tournament&#45;&gt;Player -->
<g id="edge6" class="edge"><title>Tournament&#45;&gt;Player</title>
<path fill="none" stroke="#d55399" d="M583.691,-764.207C619.555,-645.924 687.398,-360.976 584.5,-158 579.121,-147.39 571.958,-137.67 563.744,-128.835"/>
<polygon fill="#d55399" stroke="#d55399" points="583.582,-764.56 576.34,-772.795 582.112,-769.339 580.641,-774.118 580.641,-774.118 580.641,-774.118 582.112,-769.339 584.942,-775.441 583.582,-764.56 583.582,-764.56"/>
<polygon fill="#d55399" stroke="#d55399" points="563.643,-128.733 559.814,-118.458 560.128,-125.177 556.613,-121.621 556.613,-121.621 556.613,-121.621 560.128,-125.177 553.413,-124.785 563.643,-128.733 563.643,-128.733"/>
</g>
</g>
</svg>
