<?xml version="1.0" encoding="UTF-8" standalone="no"?>
<!DOCTYPE svg PUBLIC "-//W3C//DTD SVG 1.1//EN"
 "http://www.w3.org/Graphics/SVG/1.1/DTD/svg11.dtd">
<!-- Generated by graphviz version 2.40.1 (20161225.0304)
 -->
<!-- Title: models_diagram Pages: 1 -->
<svg width="868pt" height="313pt"
 viewBox="0.00 0.00 867.69 313.00" xmlns="http://www.w3.org/2000/svg" xmlns:xlink="http://www.w3.org/1999/xlink">
<g id="graph0" class="graph" transform="scale(1 1) rotate(0) translate(4 309)">
<title>models_diagram</title>
<polygon fill="transparent" stroke="transparent" points="-4,4 -4,-309 863.6877,-309 863.6877,4 -4,4"/>
<!-- _diagram_info -->
<g id="node1" class="node">
<title>_diagram_info</title>
<text text-anchor="start" x="8" y="-290.6" font-family="Times,serif" font-size="13.00" fill="#000000">Models diagram</text>
<text text-anchor="start" x="8" y="-277.6" font-family="Times,serif" font-size="13.00" fill="#000000">Date: Apr 19 2017 &#45; 14:57</text>
<text text-anchor="start" x="8" y="-264.6" font-family="Times,serif" font-size="13.00" fill="#000000">Migration version: 20170419074825</text>
<text text-anchor="start" x="8" y="-251.6" font-family="Times,serif" font-size="13.00" fill="#000000">Generated by RailRoady 1.5.2</text>
<text text-anchor="start" x="8" y="-238.6" font-family="Times,serif" font-size="13.00" fill="#000000">http://railroady.prestonlee.com</text>
</g>
<!-- ApplicationRecord -->
<g id="node2" class="node">
<title>ApplicationRecord</title>
<ellipse fill="none" stroke="#000000" cx="302.6877" cy="-268.5" rx="77.2916" ry="18"/>
<text text-anchor="middle" x="302.6877" y="-264.3" font-family="Times,serif" font-size="14.00" fill="#000000">ApplicationRecord</text>
</g>
<!-- Group -->
<g id="node3" class="node">
<title>Group</title>
<ellipse fill="none" stroke="#000000" cx="389.6877" cy="-177" rx="32.9081" ry="18"/>
<text text-anchor="middle" x="389.6877" y="-172.8" font-family="Times,serif" font-size="14.00" fill="#000000">Group</text>
</g>
<!-- GroupsTeam -->
<g id="node4" class="node">
<title>GroupsTeam</title>
<ellipse fill="none" stroke="#000000" cx="383.6877" cy="-18" rx="55.8173" ry="18"/>
<text text-anchor="middle" x="383.6877" y="-13.8" font-family="Times,serif" font-size="14.00" fill="#000000">GroupsTeam</text>
</g>
<!-- Group&#45;&gt;GroupsTeam -->
<g id="edge1" class="edge">
<title>Group&#45;&gt;GroupsTeam</title>
<path fill="none" stroke="#db2d8d" d="M378.5634,-151.8456C377.3772,-148.2652 376.3597,-144.5818 375.6877,-141 368.5582,-102.9963 371.4686,-92.4358 375.6877,-54 375.9689,-51.4384 376.3595,-48.7924 376.818,-46.1518"/>
<ellipse fill="none" stroke="#db2d8d" cx="379.978" cy="-155.6864" rx="4" ry="4"/>
<polygon fill="#db2d8d" stroke="#db2d8d" points="376.8515,-45.9858 383.2466,-37.0778 377.8438,-41.0853 378.8361,-36.1847 378.8361,-36.1847 378.8361,-36.1847 377.8438,-41.0853 374.4256,-35.2917 376.8515,-45.9858 376.8515,-45.9858"/>
</g>
<!-- Match -->
<g id="node5" class="node">
<title>Match</title>
<ellipse fill="none" stroke="#000000" cx="536.6877" cy="-18" rx="32.8994" ry="18"/>
<text text-anchor="middle" x="536.6877" y="-13.8" font-family="Times,serif" font-size="14.00" fill="#000000">Match</text>
</g>
<!-- Group&#45;&gt;Match -->
<g id="edge3" class="edge">
<title>Group&#45;&gt;Match</title>
<path fill="none" stroke="#cb3f46" d="M392.0612,-150.7608C394.6249,-131.8563 399.9022,-106.222 410.6877,-86 427.7138,-54.0776 466.1081,-36.4733 496.0696,-27.2249"/>
<ellipse fill="none" stroke="#cb3f46" cx="391.5489" cy="-154.9589" rx="4" ry="4"/>
<polygon fill="#cb3f46" stroke="#cb3f46" points="496.2557,-27.1713 507.1111,-28.7239 501.0599,-25.7857 505.8641,-24.4001 505.8641,-24.4001 505.8641,-24.4001 501.0599,-25.7857 504.6171,-20.0764 496.2557,-27.1713 496.2557,-27.1713"/>
</g>
<!-- Team -->
<g id="node7" class="node">
<title>Team</title>
<ellipse fill="none" stroke="#000000" cx="449.6877" cy="-104" rx="29.7411" ry="18"/>
<text text-anchor="middle" x="449.6877" y="-99.8" font-family="Times,serif" font-size="14.00" fill="#000000">Team</text>
</g>
<!-- Group&#45;&gt;Team -->
<g id="edge2" class="edge">
<title>Group&#45;&gt;Team</title>
<path fill="none" stroke="#eaebb3" d="M409.6946,-152.6583C416.1975,-144.7465 423.4076,-135.9742 429.8947,-128.0815"/>
<polygon fill="#eaebb3" stroke="#eaebb3" points="409.6524,-152.7097 399.8262,-157.5778 406.4775,-156.5725 403.3027,-160.4352 403.3027,-160.4352 403.3027,-160.4352 406.4775,-156.5725 406.7791,-163.2925 409.6524,-152.7097 409.6524,-152.7097"/>
<polygon fill="#eaebb3" stroke="#eaebb3" points="429.9837,-127.9732 439.8098,-123.1052 433.1585,-124.1105 436.3334,-120.2478 436.3334,-120.2478 436.3334,-120.2478 433.1585,-124.1105 432.8569,-117.3905 429.9837,-127.9732 429.9837,-127.9732"/>
</g>
<!-- Player -->
<g id="node6" class="node">
<title>Player</title>
<ellipse fill="none" stroke="#000000" cx="777.6877" cy="-18" rx="32.8994" ry="18"/>
<text text-anchor="middle" x="777.6877" y="-13.8" font-family="Times,serif" font-size="14.00" fill="#000000">Player</text>
</g>
<!-- Team&#45;&gt;GroupsTeam -->
<g id="edge7" class="edge">
<title>Team&#45;&gt;GroupsTeam</title>
<path fill="none" stroke="#13f5ac" d="M431.8748,-80.7891C423.1175,-69.3782 412.5354,-55.5894 403.5211,-43.8435"/>
<ellipse fill="none" stroke="#13f5ac" cx="434.527" cy="-84.2451" rx="4" ry="4"/>
<polygon fill="#13f5ac" stroke="#13f5ac" points="403.3712,-43.6481 400.8529,-32.9753 400.3271,-39.6815 397.283,-35.715 397.283,-35.715 397.283,-35.715 400.3271,-39.6815 393.7131,-38.4547 403.3712,-43.6481 403.3712,-43.6481"/>
</g>
<!-- Team&#45;&gt;Match -->
<g id="edge5" class="edge">
<title>Team&#45;&gt;Match</title>
<path fill="none" stroke="#97a918" d="M443.5934,-77.9302C443.0631,-69.6818 444.0905,-60.9205 448.7356,-54 459.1124,-38.5402 477.432,-29.7148 494.6752,-24.6788"/>
<ellipse fill="none" stroke="#97a918" cx="444.0829" cy="-81.9498" rx="4" ry="4"/>
<polygon fill="#97a918" stroke="#97a918" points="494.9473,-24.6092 505.7507,-26.4896 499.7912,-23.3696 504.6351,-22.13 504.6351,-22.13 504.6351,-22.13 499.7912,-23.3696 503.5195,-17.7705 494.9473,-24.6092 494.9473,-24.6092"/>
<text text-anchor="middle" x="505.6638" y="-56.8" font-family="Times,serif" font-size="14.00" fill="#000000">matches_as_team_a</text>
</g>
<!-- Team&#45;&gt;Match -->
<g id="edge6" class="edge">
<title>Team&#45;&gt;Match</title>
<path fill="none" stroke="#4701ba" d="M485.9537,-97.0205C514.7794,-90.6493 551.7046,-80.3572 560.6877,-68 566.3185,-60.2543 563.9522,-50.9806 558.9524,-42.5352"/>
<ellipse fill="none" stroke="#4701ba" cx="481.9792" cy="-97.873" rx="4" ry="4"/>
<polygon fill="#4701ba" stroke="#4701ba" points="558.7855,-42.2991 556.6885,-31.5355 555.8996,-38.2159 553.0137,-34.1328 553.0137,-34.1328 553.0137,-34.1328 555.8996,-38.2159 549.3389,-36.7301 558.7855,-42.2991 558.7855,-42.2991"/>
<text text-anchor="middle" x="621.0569" y="-56.8" font-family="Times,serif" font-size="14.00" fill="#000000">matches_as_team_b</text>
</g>
<!-- Team&#45;&gt;Player -->
<g id="edge4" class="edge">
<title>Team&#45;&gt;Player</title>
<path fill="none" stroke="#f76041" d="M487.3509,-101.9293C533.9869,-98.5154 615.3775,-89.7584 681.6877,-68 704.7522,-60.4319 728.9833,-47.7707 747.3311,-37.0832"/>
<ellipse fill="none" stroke="#f76041" cx="483.3275" cy="-102.2098" rx="4" ry="4"/>
<polygon fill="#f76041" stroke="#f76041" points="747.4993,-36.9832 758.3941,-35.7365 751.7961,-34.4263 756.0929,-31.8694 756.0929,-31.8694 756.0929,-31.8694 751.7961,-34.4263 753.7917,-28.0023 747.4993,-36.9832 747.4993,-36.9832"/>
</g>
<!-- Tournament -->
<g id="node8" class="node">
<title>Tournament</title>
<ellipse fill="none" stroke="#000000" cx="450.6877" cy="-268.5" rx="52.9192" ry="18"/>
<text text-anchor="middle" x="450.6877" y="-264.3" font-family="Times,serif" font-size="14.00" fill="#000000">Tournament</text>
</g>
<!-- Tournament&#45;&gt;Group -->
<g id="edge8" class="edge">
<title>Tournament&#45;&gt;Group</title>
<path fill="none" stroke="#d98321" d="M434.3144,-243.94C425.7555,-231.1017 415.2916,-215.4059 406.648,-202.4404"/>
<ellipse fill="none" stroke="#d98321" cx="436.7075" cy="-247.5297" rx="4" ry="4"/>
<polygon fill="#d98321" stroke="#d98321" points="406.5476,-202.2898 404.7448,-191.4731 403.7741,-198.1295 401.0006,-193.9693 401.0006,-193.9693 401.0006,-193.9693 403.7741,-198.1295 397.2564,-196.4654 406.5476,-202.2898 406.5476,-202.2898"/>
</g>
<!-- Tournament&#45;&gt;Player -->
<g id="edge10" class="edge">
<title>Tournament&#45;&gt;Player</title>
<path fill="none" stroke="#6b031b" d="M507.4769,-257.8601C577.9701,-241.5228 696.476,-203.2002 758.6877,-122 775.2626,-100.3661 779.002,-68.8406 779.2194,-46.1762"/>
<polygon fill="#6b031b" stroke="#6b031b" points="507.1944,-257.9234 496.4516,-255.7227 502.3157,-259.0184 497.4371,-260.1134 497.4371,-260.1134 497.4371,-260.1134 502.3157,-259.0184 498.4226,-264.5042 507.1944,-257.9234 507.1944,-257.9234"/>
<polygon fill="#6b031b" stroke="#6b031b" points="779.2192,-46.1485 783.5944,-36.0932 779.157,-41.1489 779.0947,-36.1493 779.0947,-36.1493 779.0947,-36.1493 779.157,-41.1489 774.5951,-36.2053 779.2192,-46.1485 779.2192,-46.1485"/>
</g>
<!-- Tournament&#45;&gt;Team -->
<g id="edge9" class="edge">
<title>Tournament&#45;&gt;Team</title>
<path fill="none" stroke="#7c36ce" d="M450.5282,-242.2601C450.3453,-212.1714 450.0466,-163.0336 449.8589,-132.161"/>
<ellipse fill="none" stroke="#7c36ce" cx="450.5525" cy="-246.2672" rx="4" ry="4"/>
<polygon fill="#7c36ce" stroke="#7c36ce" points="449.8584,-132.0637 454.2975,-122.0365 449.828,-127.0638 449.7976,-122.0639 449.7976,-122.0639 449.7976,-122.0639 449.828,-127.0638 445.2976,-122.0913 449.8584,-132.0637 449.8584,-132.0637"/>
</g>
<!-- User -->
<g id="node9" class="node">
<title>User</title>
<ellipse fill="none" stroke="#000000" cx="832.6877" cy="-104" rx="27" ry="18"/>
<text text-anchor="middle" x="832.6877" y="-99.8" font-family="Times,serif" font-size="14.00" fill="#000000">User</text>
</g>
<!-- User&#45;&gt;Player -->
<g id="edge11" class="edge">
<title>User&#45;&gt;Player</title>
<path fill="none" stroke="#5ac497" d="M817.5335,-80.3043C810.236,-68.8937 801.4748,-55.1943 794.0283,-43.5507"/>
<ellipse fill="none" stroke="#5ac497" cx="819.9281" cy="-84.0485" rx="4" ry="4"/>
<polygon fill="#5ac497" stroke="#5ac497" points="794.024,-43.5439 792.4272,-32.6949 791.3301,-39.3316 788.6362,-35.1194 788.6362,-35.1194 788.6362,-35.1194 791.3301,-39.3316 784.8452,-37.5439 794.024,-43.5439 794.024,-43.5439"/>
</g>
<!-- Venue -->
<g id="node10" class="node">
<title>Venue</title>
<ellipse fill="none" stroke="#000000" cx="717.6877" cy="-104" rx="32.415" ry="18"/>
<text text-anchor="middle" x="717.6877" y="-99.8" font-family="Times,serif" font-size="14.00" fill="#000000">Venue</text>
</g>
<!-- Venue&#45;&gt;Match -->
<g id="edge12" class="edge">
<title>Venue&#45;&gt;Match</title>
<path fill="none" stroke="#146ac5" d="M704.8937,-79.3665C698.9777,-70.1632 691.1463,-60.4026 681.6877,-54 664.9501,-42.67 614.8527,-31.7929 578.2162,-25.0163"/>
<ellipse fill="none" stroke="#146ac5" cx="706.9716" cy="-82.8069" rx="4" ry="4"/>
<polygon fill="#146ac5" stroke="#146ac5" points="578.1186,-24.9987 569.0805,-18.7887 573.1986,-24.1077 568.2786,-23.2167 568.2786,-23.2167 568.2786,-23.2167 573.1986,-24.1077 567.4767,-27.6447 578.1186,-24.9987 578.1186,-24.9987"/>
</g>
</g>
</svg>
