<?xml version="1.0" encoding="UTF-8" standalone="no"?>
<!DOCTYPE svg PUBLIC "-//W3C//DTD SVG 1.1//EN"
 "http://www.w3.org/Graphics/SVG/1.1/DTD/svg11.dtd">
<!-- Generated by graphviz version 2.40.1 (20161225.0304)
 -->
<!-- Title: models_diagram Pages: 1 -->
<svg width="1295pt" height="886pt"
 viewBox="0.00 0.00 1295.32 886.00" xmlns="http://www.w3.org/2000/svg" xmlns:xlink="http://www.w3.org/1999/xlink">
<g id="graph0" class="graph" transform="scale(1 1) rotate(0) translate(4 882)">
<title>models_diagram</title>
<polygon fill="transparent" stroke="transparent" points="-4,4 -4,-882 1291.3225,-882 1291.3225,4 -4,4"/>
<!-- _diagram_info -->
<g id="node1" class="node">
<title>_diagram_info</title>
<text text-anchor="start" x="8" y="-856.6" font-family="Times,serif" font-size="13.00" fill="#000000">Models diagram</text>
<text text-anchor="start" x="8" y="-843.6" font-family="Times,serif" font-size="13.00" fill="#000000">Date: Apr 19 2017 &#45; 14:57</text>
<text text-anchor="start" x="8" y="-830.6" font-family="Times,serif" font-size="13.00" fill="#000000">Migration version: 20170419074825</text>
<text text-anchor="start" x="8" y="-817.6" font-family="Times,serif" font-size="13.00" fill="#000000">Generated by RailRoady 1.5.2</text>
<text text-anchor="start" x="8" y="-804.6" font-family="Times,serif" font-size="13.00" fill="#000000">http://railroady.prestonlee.com</text>
</g>
<!-- ApplicationRecord -->
<g id="node2" class="node">
<title>ApplicationRecord</title>
<ellipse fill="none" stroke="#000000" cx="302.6877" cy="-834.5" rx="77.2916" ry="18"/>
<text text-anchor="middle" x="302.6877" y="-830.3" font-family="Times,serif" font-size="14.00" fill="#000000">ApplicationRecord</text>
</g>
<!-- Group -->
<g id="node3" class="node">
<title>Group</title>
<path fill="none" stroke="#000000" d="M257.8254,-653.5C257.8254,-653.5 481.55,-653.5 481.55,-653.5 487.55,-653.5 493.55,-659.5 493.55,-665.5 493.55,-665.5 493.55,-741.5 493.55,-741.5 493.55,-747.5 487.55,-753.5 481.55,-753.5 481.55,-753.5 257.8254,-753.5 257.8254,-753.5 251.8254,-753.5 245.8254,-747.5 245.8254,-741.5 245.8254,-741.5 245.8254,-665.5 245.8254,-665.5 245.8254,-659.5 251.8254,-653.5 257.8254,-653.5"/>
<text text-anchor="middle" x="369.6877" y="-738.3" font-family="Times,serif" font-size="14.00" fill="#000000">Group</text>
<polyline fill="none" stroke="#000000" points="245.8254,-731.5 493.55,-731.5 "/>
<text text-anchor="start" x="253.8254" y="-716.3" font-family="Times,serif" font-size="14.00" fill="#000000">id :integer</text>
<text text-anchor="start" x="253.8254" y="-702.3" font-family="Times,serif" font-size="14.00" fill="#000000">tournament_id :integer</text>
<text text-anchor="start" x="253.8254" y="-688.3" font-family="Times,serif" font-size="14.00" fill="#000000">name :character varying</text>
<text text-anchor="start" x="253.8254" y="-674.3" font-family="Times,serif" font-size="14.00" fill="#000000">created_at :timestamp without time zone</text>
<text text-anchor="start" x="253.8254" y="-660.3" font-family="Times,serif" font-size="14.00" fill="#000000">updated_at :timestamp without time zone</text>
</g>
<!-- GroupsTeam -->
<g id="node4" class="node">
<title>GroupsTeam</title>
<path fill="none" stroke="#000000" d="M222.8254,-14.5C222.8254,-14.5 446.55,-14.5 446.55,-14.5 452.55,-14.5 458.55,-20.5 458.55,-26.5 458.55,-26.5 458.55,-116.5 458.55,-116.5 458.55,-122.5 452.55,-128.5 446.55,-128.5 446.55,-128.5 222.8254,-128.5 222.8254,-128.5 216.8254,-128.5 210.8254,-122.5 210.8254,-116.5 210.8254,-116.5 210.8254,-26.5 210.8254,-26.5 210.8254,-20.5 216.8254,-14.5 222.8254,-14.5"/>
<text text-anchor="middle" x="334.6877" y="-113.3" font-family="Times,serif" font-size="14.00" fill="#000000">GroupsTeam</text>
<polyline fill="none" stroke="#000000" points="210.8254,-106.5 458.55,-106.5 "/>
<text text-anchor="start" x="218.8254" y="-91.3" font-family="Times,serif" font-size="14.00" fill="#000000">id :integer</text>
<text text-anchor="start" x="218.8254" y="-77.3" font-family="Times,serif" font-size="14.00" fill="#000000">group_id :integer</text>
<text text-anchor="start" x="218.8254" y="-63.3" font-family="Times,serif" font-size="14.00" fill="#000000">team_id :integer</text>
<text text-anchor="start" x="218.8254" y="-49.3" font-family="Times,serif" font-size="14.00" fill="#000000">created_at :timestamp without time zone</text>
<text text-anchor="start" x="218.8254" y="-35.3" font-family="Times,serif" font-size="14.00" fill="#000000">updated_at :timestamp without time zone</text>
<text text-anchor="start" x="218.8254" y="-21.3" font-family="Times,serif" font-size="14.00" fill="#000000">order :integer</text>
</g>
<!-- Group&#45;&gt;GroupsTeam -->
<g id="edge1" class="edge">
<title>Group&#45;&gt;GroupsTeam</title>
<path fill="none" stroke="#524bec" d="M357.0918,-645.1461C356.5614,-641.7223 356.0863,-638.3218 355.6877,-635 334.2971,-456.7411 332.7769,-244.6964 333.6353,-138.7551"/>
<ellipse fill="none" stroke="#524bec" cx="357.7653" cy="-649.2052" rx="4" ry="4"/>
<polygon fill="#524bec" stroke="#524bec" points="333.6372,-138.5294 338.2281,-128.5708 333.6827,-133.5296 333.7283,-128.5298 333.7283,-128.5298 333.7283,-128.5298 333.6827,-133.5296 329.2285,-128.4889 333.6372,-138.5294 333.6372,-138.5294"/>
</g>
<!-- Match -->
<g id="node5" class="node">
<title>Match</title>
<path fill="none" stroke="#000000" d="M497.8254,-.5C497.8254,-.5 721.55,-.5 721.55,-.5 727.55,-.5 733.55,-6.5 733.55,-12.5 733.55,-12.5 733.55,-130.5 733.55,-130.5 733.55,-136.5 727.55,-142.5 721.55,-142.5 721.55,-142.5 497.8254,-142.5 497.8254,-142.5 491.8254,-142.5 485.8254,-136.5 485.8254,-130.5 485.8254,-130.5 485.8254,-12.5 485.8254,-12.5 485.8254,-6.5 491.8254,-.5 497.8254,-.5"/>
<text text-anchor="middle" x="609.6877" y="-127.3" font-family="Times,serif" font-size="14.00" fill="#000000">Match</text>
<polyline fill="none" stroke="#000000" points="485.8254,-120.5 733.55,-120.5 "/>
<text text-anchor="start" x="493.8254" y="-105.3" font-family="Times,serif" font-size="14.00" fill="#000000">updated_at :timestamp without time zone</text>
<text text-anchor="start" x="493.8254" y="-91.3" font-family="Times,serif" font-size="14.00" fill="#000000">group_id :integer</text>
<text text-anchor="start" x="493.8254" y="-77.3" font-family="Times,serif" font-size="14.00" fill="#000000">venue_id :integer</text>
<text text-anchor="start" x="493.8254" y="-63.3" font-family="Times,serif" font-size="14.00" fill="#000000">team_a_id :integer</text>
<text text-anchor="start" x="493.8254" y="-49.3" font-family="Times,serif" font-size="14.00" fill="#000000">team_b_id :integer</text>
<text text-anchor="start" x="493.8254" y="-35.3" font-family="Times,serif" font-size="14.00" fill="#000000">time :timestamp without time zone</text>
<text text-anchor="start" x="493.8254" y="-21.3" font-family="Times,serif" font-size="14.00" fill="#000000">created_at :timestamp without time zone</text>
<text text-anchor="start" x="493.8254" y="-7.3" font-family="Times,serif" font-size="14.00" fill="#000000">id :integer</text>
</g>
<!-- Group&#45;&gt;Match -->
<g id="edge3" class="edge">
<title>Group&#45;&gt;Match</title>
<path fill="none" stroke="#b8f436" d="M364.8487,-645.2284C356.2013,-527.6895 342.9933,-267.0859 388.6877,-193 391.792,-187.9669 431.6433,-165.5392 476.6699,-141.2964"/>
<ellipse fill="none" stroke="#b8f436" cx="365.1643" cy="-649.4505" rx="4" ry="4"/>
<polygon fill="#b8f436" stroke="#b8f436" points="476.9249,-141.1596 487.864,-140.3928 481.3299,-138.7939 485.7349,-136.4283 485.7349,-136.4283 485.7349,-136.4283 481.3299,-138.7939 483.6059,-132.4638 476.9249,-141.1596 476.9249,-141.1596"/>
</g>
<!-- Team -->
<g id="node7" class="node">
<title>Team</title>
<path fill="none" stroke="#000000" d="M409.8254,-354.5C409.8254,-354.5 633.55,-354.5 633.55,-354.5 639.55,-354.5 645.55,-360.5 645.55,-366.5 645.55,-366.5 645.55,-442.5 645.55,-442.5 645.55,-448.5 639.55,-454.5 633.55,-454.5 633.55,-454.5 409.8254,-454.5 409.8254,-454.5 403.8254,-454.5 397.8254,-448.5 397.8254,-442.5 397.8254,-442.5 397.8254,-366.5 397.8254,-366.5 397.8254,-360.5 403.8254,-354.5 409.8254,-354.5"/>
<text text-anchor="middle" x="521.6877" y="-439.3" font-family="Times,serif" font-size="14.00" fill="#000000">Team</text>
<polyline fill="none" stroke="#000000" points="397.8254,-432.5 645.55,-432.5 "/>
<text text-anchor="start" x="405.8254" y="-417.3" font-family="Times,serif" font-size="14.00" fill="#000000">id :integer</text>
<text text-anchor="start" x="405.8254" y="-403.3" font-family="Times,serif" font-size="14.00" fill="#000000">name :character varying</text>
<text text-anchor="start" x="405.8254" y="-389.3" font-family="Times,serif" font-size="14.00" fill="#000000">created_at :timestamp without time zone</text>
<text text-anchor="start" x="405.8254" y="-375.3" font-family="Times,serif" font-size="14.00" fill="#000000">updated_at :timestamp without time zone</text>
<text text-anchor="start" x="405.8254" y="-361.3" font-family="Times,serif" font-size="14.00" fill="#000000">tournament_id :integer</text>
</g>
<!-- Group&#45;&gt;Team -->
<g id="edge2" class="edge">
<title>Group&#45;&gt;Team</title>
<path fill="none" stroke="#33b034" d="M399.7035,-644.4559C426.279,-592.179 464.8752,-516.2562 491.5019,-463.8787"/>
<polygon fill="#33b034" stroke="#33b034" points="399.6608,-644.5399 391.1177,-651.4148 397.395,-648.997 395.1291,-653.4541 395.1291,-653.4541 395.1291,-653.4541 397.395,-648.997 399.1405,-655.4934 399.6608,-644.5399 399.6608,-644.5399"/>
<polygon fill="#33b034" stroke="#33b034" points="491.6316,-463.6234 500.1748,-456.7484 493.8975,-459.1663 496.1634,-454.7091 496.1634,-454.7091 496.1634,-454.7091 493.8975,-459.1663 492.1519,-452.6699 491.6316,-463.6234 491.6316,-463.6234"/>
</g>
<!-- Player -->
<g id="node6" class="node">
<title>Player</title>
<path fill="none" stroke="#000000" d="M827.8254,-14.5C827.8254,-14.5 1051.55,-14.5 1051.55,-14.5 1057.55,-14.5 1063.55,-20.5 1063.55,-26.5 1063.55,-26.5 1063.55,-116.5 1063.55,-116.5 1063.55,-122.5 1057.55,-128.5 1051.55,-128.5 1051.55,-128.5 827.8254,-128.5 827.8254,-128.5 821.8254,-128.5 815.8254,-122.5 815.8254,-116.5 815.8254,-116.5 815.8254,-26.5 815.8254,-26.5 815.8254,-20.5 821.8254,-14.5 827.8254,-14.5"/>
<text text-anchor="middle" x="939.6877" y="-113.3" font-family="Times,serif" font-size="14.00" fill="#000000">Player</text>
<polyline fill="none" stroke="#000000" points="815.8254,-106.5 1063.55,-106.5 "/>
<text text-anchor="start" x="823.8254" y="-91.3" font-family="Times,serif" font-size="14.00" fill="#000000">id :integer</text>
<text text-anchor="start" x="823.8254" y="-77.3" font-family="Times,serif" font-size="14.00" fill="#000000">user_id :integer</text>
<text text-anchor="start" x="823.8254" y="-63.3" font-family="Times,serif" font-size="14.00" fill="#000000">tournament_id :integer</text>
<text text-anchor="start" x="823.8254" y="-49.3" font-family="Times,serif" font-size="14.00" fill="#000000">created_at :timestamp without time zone</text>
<text text-anchor="start" x="823.8254" y="-35.3" font-family="Times,serif" font-size="14.00" fill="#000000">updated_at :timestamp without time zone</text>
<text text-anchor="start" x="823.8254" y="-21.3" font-family="Times,serif" font-size="14.00" fill="#000000">team_id :integer</text>
</g>
<!-- Team&#45;&gt;GroupsTeam -->
<g id="edge7" class="edge">
<title>Team&#45;&gt;GroupsTeam</title>
<path fill="none" stroke="#9311d2" d="M489.399,-347.0019C456.6464,-288.6778 406.0172,-198.5198 371.6716,-137.3589"/>
<ellipse fill="none" stroke="#9311d2" cx="491.5309" cy="-350.7983" rx="4" ry="4"/>
<polygon fill="#9311d2" stroke="#9311d2" points="371.6229,-137.2721 370.6501,-126.3495 369.1747,-132.9125 366.7264,-128.5529 366.7264,-128.5529 366.7264,-128.5529 369.1747,-132.9125 362.8028,-130.7563 371.6229,-137.2721 371.6229,-137.2721"/>
</g>
<!-- Team&#45;&gt;Match -->
<g id="edge5" class="edge">
<title>Team&#45;&gt;Match</title>
<path fill="none" stroke="#beab17" d="M491.3191,-346.6239C468.795,-295.154 446.8635,-219.2435 477.7356,-161 479.6143,-157.4556 481.7032,-154.0256 483.9725,-150.7086"/>
<ellipse fill="none" stroke="#beab17" cx="493.0046" cy="-350.3852" rx="4" ry="4"/>
<polygon fill="#beab17" stroke="#beab17" points="483.9772,-150.7021 493.5709,-145.3905 486.9724,-146.6985 489.9676,-142.6948 489.9676,-142.6948 489.9676,-142.6948 486.9724,-146.6985 486.3643,-139.9992 483.9772,-150.7021 483.9772,-150.7021"/>
<text text-anchor="middle" x="534.6638" y="-163.8" font-family="Times,serif" font-size="14.00" fill="#000000">matches_as_team_a</text>
</g>
<!-- Team&#45;&gt;Match -->
<g id="edge6" class="edge">
<title>Team&#45;&gt;Match</title>
<path fill="none" stroke="#f881cc" d="M540.5771,-346.4904C555.1894,-300.3443 575.2922,-233.9608 589.6877,-175 591.4534,-167.7683 593.1629,-160.2217 594.7895,-152.6429"/>
<ellipse fill="none" stroke="#f881cc" cx="539.3098" cy="-350.4785" rx="4" ry="4"/>
<polygon fill="#f881cc" stroke="#f881cc" points="594.8252,-152.472 601.282,-143.6086 595.8515,-147.5785 596.8778,-142.6849 596.8778,-142.6849 596.8778,-142.6849 595.8515,-147.5785 592.4736,-141.7613 594.8252,-152.472 594.8252,-152.472"/>
<text text-anchor="middle" x="650.0569" y="-163.8" font-family="Times,serif" font-size="14.00" fill="#000000">matches_as_team_b</text>
</g>
<!-- Team&#45;&gt;Player -->
<g id="edge4" class="edge">
<title>Team&#45;&gt;Player</title>
<path fill="none" stroke="#aa1e1e" d="M544.5843,-346.6979C566.2465,-299.0529 603.1425,-233.0226 654.6877,-193 675.337,-176.9668 686.2926,-184.3987 710.6877,-175 743.4808,-162.3659 778.3088,-147.4357 810.6446,-132.9051"/>
<ellipse fill="none" stroke="#aa1e1e" cx="542.8714" cy="-350.5285" rx="4" ry="4"/>
<polygon fill="#aa1e1e" stroke="#aa1e1e" points="811.0291,-132.7315 821.995,-132.7176 815.5862,-130.6739 820.1432,-128.6163 820.1432,-128.6163 820.1432,-128.6163 815.5862,-130.6739 818.2914,-124.515 811.0291,-132.7315 811.0291,-132.7315"/>
</g>
<!-- Tournament -->
<g id="node8" class="node">
<title>Tournament</title>
<path fill="none" stroke="#000000" d="M409.8254,-791.5C409.8254,-791.5 633.55,-791.5 633.55,-791.5 639.55,-791.5 645.55,-797.5 645.55,-803.5 645.55,-803.5 645.55,-865.5 645.55,-865.5 645.55,-871.5 639.55,-877.5 633.55,-877.5 633.55,-877.5 409.8254,-877.5 409.8254,-877.5 403.8254,-877.5 397.8254,-871.5 397.8254,-865.5 397.8254,-865.5 397.8254,-803.5 397.8254,-803.5 397.8254,-797.5 403.8254,-791.5 409.8254,-791.5"/>
<text text-anchor="middle" x="521.6877" y="-862.3" font-family="Times,serif" font-size="14.00" fill="#000000">Tournament</text>
<polyline fill="none" stroke="#000000" points="397.8254,-855.5 645.55,-855.5 "/>
<text text-anchor="start" x="405.8254" y="-840.3" font-family="Times,serif" font-size="14.00" fill="#000000">id :integer</text>
<text text-anchor="start" x="405.8254" y="-826.3" font-family="Times,serif" font-size="14.00" fill="#000000">name :character varying</text>
<text text-anchor="start" x="405.8254" y="-812.3" font-family="Times,serif" font-size="14.00" fill="#000000">created_at :timestamp without time zone</text>
<text text-anchor="start" x="405.8254" y="-798.3" font-family="Times,serif" font-size="14.00" fill="#000000">updated_at :timestamp without time zone</text>
</g>
<!-- Tournament&#45;&gt;Group -->
<g id="edge8" class="edge">
<title>Tournament&#45;&gt;Group</title>
<path fill="none" stroke="#21dc8a" d="M465.1774,-785.797C455.5328,-777.4849 445.4393,-768.7859 435.5769,-760.2861"/>
<ellipse fill="none" stroke="#21dc8a" cx="468.466" cy="-788.6313" rx="4" ry="4"/>
<polygon fill="#21dc8a" stroke="#21dc8a" points="435.3051,-760.0518 430.6679,-750.1146 431.5176,-756.7876 427.7301,-753.5234 427.7301,-753.5234 427.7301,-753.5234 431.5176,-756.7876 424.7923,-756.9321 435.3051,-760.0518 435.3051,-760.0518"/>
</g>
<!-- Tournament&#45;&gt;Player -->
<g id="edge10" class="edge">
<title>Tournament&#45;&gt;Player</title>
<path fill="none" stroke="#6fdde3" d="M655.5095,-799.2339C747.1384,-767.4636 862.257,-710.8062 920.6877,-616 968.7658,-537.9914 954.9519,-266.1646 945.3916,-138.586"/>
<polygon fill="#6fdde3" stroke="#6fdde3" points="655.3399,-799.2916 644.4232,-798.254 650.6066,-800.9028 645.8733,-802.514 645.8733,-802.514 645.8733,-802.514 650.6066,-800.9028 647.3234,-806.774 655.3399,-799.2916 655.3399,-799.2916"/>
<polygon fill="#6fdde3" stroke="#6fdde3" points="945.3864,-138.5161 949.1125,-128.2027 945.006,-133.5306 944.6256,-128.5451 944.6256,-128.5451 944.6256,-128.5451 945.006,-133.5306 940.1386,-128.8875 945.3864,-138.5161 945.3864,-138.5161"/>
</g>
<!-- Tournament&#45;&gt;Team -->
<g id="edge9" class="edge">
<title>Tournament&#45;&gt;Team</title>
<path fill="none" stroke="#a4a491" d="M521.6877,-783.2707C521.6877,-703.4048 521.6877,-549.5852 521.6877,-464.5993"/>
<ellipse fill="none" stroke="#a4a491" cx="521.6878" cy="-787.3012" rx="4" ry="4"/>
<polygon fill="#a4a491" stroke="#a4a491" points="521.6878,-464.586 526.1877,-454.586 521.6878,-459.586 521.6877,-454.586 521.6877,-454.586 521.6877,-454.586 521.6878,-459.586 517.1877,-454.586 521.6878,-464.586 521.6878,-464.586"/>
</g>
<!-- User -->
<g id="node9" class="node">
<title>User</title>
<path fill="none" stroke="#000000" d="M980.053,-193.5C980.053,-193.5 1275.3225,-193.5 1275.3225,-193.5 1281.3225,-193.5 1287.3225,-199.5 1287.3225,-205.5 1287.3225,-205.5 1287.3225,-603.5 1287.3225,-603.5 1287.3225,-609.5 1281.3225,-615.5 1275.3225,-615.5 1275.3225,-615.5 980.053,-615.5 980.053,-615.5 974.053,-615.5 968.053,-609.5 968.053,-603.5 968.053,-603.5 968.053,-205.5 968.053,-205.5 968.053,-199.5 974.053,-193.5 980.053,-193.5"/>
<text text-anchor="middle" x="1127.6877" y="-600.3" font-family="Times,serif" font-size="14.00" fill="#000000">User</text>
<polyline fill="none" stroke="#000000" points="968.053,-593.5 1287.3225,-593.5 "/>
<text text-anchor="start" x="976.053" y="-578.3" font-family="Times,serif" font-size="14.00" fill="#000000">slug :character varying</text>
<text text-anchor="start" x="976.053" y="-564.3" font-family="Times,serif" font-size="14.00" fill="#000000">provider :character varying</text>
<text text-anchor="start" x="976.053" y="-550.3" font-family="Times,serif" font-size="14.00" fill="#000000">uid :character varying</text>
<text text-anchor="start" x="976.053" y="-536.3" font-family="Times,serif" font-size="14.00" fill="#000000">encrypted_password :character varying</text>
<text text-anchor="start" x="976.053" y="-522.3" font-family="Times,serif" font-size="14.00" fill="#000000">reset_password_token :character varying</text>
<text text-anchor="start" x="976.053" y="-508.3" font-family="Times,serif" font-size="14.00" fill="#000000">reset_password_sent_at :timestamp without time zone</text>
<text text-anchor="start" x="976.053" y="-494.3" font-family="Times,serif" font-size="14.00" fill="#000000">remember_created_at :timestamp without time zone</text>
<text text-anchor="start" x="976.053" y="-480.3" font-family="Times,serif" font-size="14.00" fill="#000000">sign_in_count :integer</text>
<text text-anchor="start" x="976.053" y="-466.3" font-family="Times,serif" font-size="14.00" fill="#000000">current_sign_in_at :timestamp without time zone</text>
<text text-anchor="start" x="976.053" y="-452.3" font-family="Times,serif" font-size="14.00" fill="#000000">last_sign_in_at :timestamp without time zone</text>
<text text-anchor="start" x="976.053" y="-438.3" font-family="Times,serif" font-size="14.00" fill="#000000">current_sign_in_ip :character varying</text>
<text text-anchor="start" x="976.053" y="-424.3" font-family="Times,serif" font-size="14.00" fill="#000000">last_sign_in_ip :character varying</text>
<text text-anchor="start" x="976.053" y="-410.3" font-family="Times,serif" font-size="14.00" fill="#000000">confirmation_token :character varying</text>
<text text-anchor="start" x="976.053" y="-396.3" font-family="Times,serif" font-size="14.00" fill="#000000">confirmed_at :timestamp without time zone</text>
<text text-anchor="start" x="976.053" y="-382.3" font-family="Times,serif" font-size="14.00" fill="#000000">confirmation_sent_at :timestamp without time zone</text>
<text text-anchor="start" x="976.053" y="-368.3" font-family="Times,serif" font-size="14.00" fill="#000000">unconfirmed_email :character varying</text>
<text text-anchor="start" x="976.053" y="-354.3" font-family="Times,serif" font-size="14.00" fill="#000000">name :character varying</text>
<text text-anchor="start" x="976.053" y="-340.3" font-family="Times,serif" font-size="14.00" fill="#000000">nickname :character varying</text>
<text text-anchor="start" x="976.053" y="-326.3" font-family="Times,serif" font-size="14.00" fill="#000000">image :character varying</text>
<text text-anchor="start" x="976.053" y="-312.3" font-family="Times,serif" font-size="14.00" fill="#000000">email :character varying</text>
<text text-anchor="start" x="976.053" y="-298.3" font-family="Times,serif" font-size="14.00" fill="#000000">tokens :json</text>
<text text-anchor="start" x="976.053" y="-284.3" font-family="Times,serif" font-size="14.00" fill="#000000">created_at :timestamp without time zone</text>
<text text-anchor="start" x="976.053" y="-270.3" font-family="Times,serif" font-size="14.00" fill="#000000">updated_at :timestamp without time zone</text>
<text text-anchor="start" x="976.053" y="-256.3" font-family="Times,serif" font-size="14.00" fill="#000000">phone_number :character varying</text>
<text text-anchor="start" x="976.053" y="-242.3" font-family="Times,serif" font-size="14.00" fill="#000000">skill_level :integer</text>
<text text-anchor="start" x="976.053" y="-228.3" font-family="Times,serif" font-size="14.00" fill="#000000">address :text</text>
<text text-anchor="start" x="976.053" y="-214.3" font-family="Times,serif" font-size="14.00" fill="#000000">note :text</text>
<text text-anchor="start" x="976.053" y="-200.3" font-family="Times,serif" font-size="14.00" fill="#000000">id :integer</text>
</g>
<!-- User&#45;&gt;Player -->
<g id="edge11" class="edge">
<title>User&#45;&gt;Player</title>
<path fill="none" stroke="#cc10d0" d="M1004.3533,-186.0406C994.6345,-168.8259 985.3807,-152.4348 977.0683,-137.7113"/>
<ellipse fill="none" stroke="#cc10d0" cx="1006.3916" cy="-189.6509" rx="4" ry="4"/>
<polygon fill="#cc10d0" stroke="#cc10d0" points="976.9349,-137.475 975.9373,-126.5546 974.4768,-133.121 972.0186,-128.7669 972.0186,-128.7669 972.0186,-128.7669 974.4768,-133.121 968.1,-130.9793 976.9349,-137.475 976.9349,-137.475"/>
</g>
<!-- Venue -->
<g id="node10" class="node">
<title>Venue</title>
<path fill="none" stroke="#000000" d="M675.8254,-361.5C675.8254,-361.5 899.55,-361.5 899.55,-361.5 905.55,-361.5 911.55,-367.5 911.55,-373.5 911.55,-373.5 911.55,-435.5 911.55,-435.5 911.55,-441.5 905.55,-447.5 899.55,-447.5 899.55,-447.5 675.8254,-447.5 675.8254,-447.5 669.8254,-447.5 663.8254,-441.5 663.8254,-435.5 663.8254,-435.5 663.8254,-373.5 663.8254,-373.5 663.8254,-367.5 669.8254,-361.5 675.8254,-361.5"/>
<text text-anchor="middle" x="787.6877" y="-432.3" font-family="Times,serif" font-size="14.00" fill="#000000">Venue</text>
<polyline fill="none" stroke="#000000" points="663.8254,-425.5 911.55,-425.5 "/>
<text text-anchor="start" x="671.8254" y="-410.3" font-family="Times,serif" font-size="14.00" fill="#000000">id :integer</text>
<text text-anchor="start" x="671.8254" y="-396.3" font-family="Times,serif" font-size="14.00" fill="#000000">name :character varying</text>
<text text-anchor="start" x="671.8254" y="-382.3" font-family="Times,serif" font-size="14.00" fill="#000000">created_at :timestamp without time zone</text>
<text text-anchor="start" x="671.8254" y="-368.3" font-family="Times,serif" font-size="14.00" fill="#000000">updated_at :timestamp without time zone</text>
</g>
<!-- Venue&#45;&gt;Match -->
<g id="edge12" class="edge">
<title>Venue&#45;&gt;Match</title>
<path fill="none" stroke="#be60d4" d="M779.7893,-353.4188C769.9717,-301.634 749.5415,-220.8264 710.6877,-161 708.3908,-157.4632 705.9176,-153.9814 703.3042,-150.5642"/>
<ellipse fill="none" stroke="#be60d4" cx="780.5494" cy="-357.5395" rx="4" ry="4"/>
<polygon fill="#be60d4" stroke="#be60d4" points="703.2485,-150.4951 700.471,-139.8867 700.1086,-146.6038 696.9688,-142.7126 696.9688,-142.7126 696.9688,-142.7126 700.1086,-146.6038 693.4667,-145.5384 703.2485,-150.4951 703.2485,-150.4951"/>
</g>
</g>
</svg>
