<?xml version="1.0" encoding="UTF-8" standalone="no"?>
<!DOCTYPE svg PUBLIC "-//W3C//DTD SVG 1.1//EN"
 "http://www.w3.org/Graphics/SVG/1.1/DTD/svg11.dtd">
<!-- Generated by graphviz version 2.38.0 (20140413.2041)
 -->
<!-- Title: models_diagram Pages: 1 -->
<svg width="606pt" height="302pt"
 viewBox="0.00 0.00 605.80 302.00" xmlns="http://www.w3.org/2000/svg" xmlns:xlink="http://www.w3.org/1999/xlink">
<g id="graph0" class="graph" transform="scale(1 1) rotate(0) translate(4 298)">
<title>models_diagram</title>
<polygon fill="none" stroke="none" points="-4,4 -4,-298 601.797,-298 601.797,4 -4,4"/>
<!-- _diagram_info -->
<g id="node1" class="node"><title>_diagram_info</title>
<text text-anchor="start" x="8" y="-279.6" font-family="Times,serif" font-size="13.00">Models diagram</text>
<text text-anchor="start" x="8" y="-265.6" font-family="Times,serif" font-size="13.00">Date: Apr 14 2017 &#45; 17:04</text>
<text text-anchor="start" x="8" y="-251.6" font-family="Times,serif" font-size="13.00">Migration version: 20170414094451</text>
<text text-anchor="start" x="8" y="-237.6" font-family="Times,serif" font-size="13.00">Generated by RailRoady 1.5.2</text>
<text text-anchor="start" x="8" y="-223.6" font-family="Times,serif" font-size="13.00">http://railroady.prestonlee.com</text>
</g>
<!-- ApplicationRecord -->
<g id="node2" class="node"><title>ApplicationRecord</title>
<ellipse fill="none" stroke="black" cx="309" cy="-255" rx="77.1866" ry="18"/>
<text text-anchor="middle" x="309" y="-251.3" font-family="Times,serif" font-size="14.00">ApplicationRecord</text>
</g>
<!-- Group -->
<g id="node3" class="node"><title>Group</title>
<ellipse fill="none" stroke="black" cx="397" cy="-162" rx="33.2948" ry="18"/>
<text text-anchor="middle" x="397" y="-158.3" font-family="Times,serif" font-size="14.00">Group</text>
</g>
<!-- Team -->
<g id="node4" class="node"><title>Team</title>
<ellipse fill="none" stroke="black" cx="437" cy="-90" rx="31.3957" ry="18"/>
<text text-anchor="middle" x="437" y="-86.3" font-family="Times,serif" font-size="14.00">Team</text>
</g>
<!-- Group&#45;&gt;Team -->
<g id="edge1" class="edge"><title>Group&#45;&gt;Team</title>
<path fill="none" stroke="#1eb341" d="M410.578,-137.238C414.425,-130.506 418.626,-123.154 422.524,-116.333"/>
<ellipse fill="none" stroke="#1eb341" cx="408.464" cy="-140.938" rx="4.00002" ry="4.00002"/>
<polygon fill="#1eb341" stroke="#1eb341" points="422.627,-116.152 431.496,-109.703 425.108,-111.811 427.589,-107.47 427.589,-107.47 427.589,-107.47 425.108,-111.811 423.682,-105.237 422.627,-116.152 422.627,-116.152"/>
</g>
<!-- Player -->
<g id="node5" class="node"><title>Player</title>
<ellipse fill="none" stroke="black" cx="437" cy="-18" rx="33.2948" ry="18"/>
<text text-anchor="middle" x="437" y="-14.3" font-family="Times,serif" font-size="14.00">Player</text>
</g>
<!-- Team&#45;&gt;Player -->
<g id="edge2" class="edge"><title>Team&#45;&gt;Player</title>
<path fill="none" stroke="#74552b" d="M437,-63.6398C437,-58.0629 437,-52.1319 437,-46.4761"/>
<ellipse fill="none" stroke="#74552b" cx="437" cy="-67.6966" rx="4" ry="4"/>
<polygon fill="#74552b" stroke="#74552b" points="437,-46.1043 441.5,-36.1043 437,-41.1043 437,-36.1043 437,-36.1043 437,-36.1043 437,-41.1043 432.5,-36.1044 437,-46.1043 437,-46.1043"/>
</g>
<!-- Venue -->
<g id="node6" class="node"><title>Venue</title>
<ellipse fill="none" stroke="black" cx="564" cy="-255" rx="33.5952" ry="18"/>
<text text-anchor="middle" x="564" y="-251.3" font-family="Times,serif" font-size="14.00">Venue</text>
</g>
<!-- User -->
<g id="node7" class="node"><title>User</title>
<ellipse fill="none" stroke="black" cx="361" cy="-90" rx="27.0966" ry="18"/>
<text text-anchor="middle" x="361" y="-86.3" font-family="Times,serif" font-size="14.00">User</text>
</g>
<!-- User&#45;&gt;Player -->
<g id="edge3" class="edge"><title>User&#45;&gt;Player</title>
<path fill="none" stroke="#7ee9a0" d="M382.463,-69.2312C392.084,-60.37 403.462,-49.8907 413.329,-40.8023"/>
<ellipse fill="none" stroke="#7ee9a0" cx="379.322" cy="-72.1245" rx="4.00002" ry="4.00002"/>
<polygon fill="#7ee9a0" stroke="#7ee9a0" points="413.501,-40.6441 423.905,-37.1793 417.178,-37.2567 420.856,-33.8693 420.856,-33.8693 420.856,-33.8693 417.178,-37.2567 417.808,-30.5593 413.501,-40.6441 413.501,-40.6441"/>
</g>
<!-- Tournament -->
<g id="node8" class="node"><title>Tournament</title>
<ellipse fill="none" stroke="black" cx="458" cy="-255" rx="53.8905" ry="18"/>
<text text-anchor="middle" x="458" y="-251.3" font-family="Times,serif" font-size="14.00">Tournament</text>
</g>
<!-- Tournament&#45;&gt;Group -->
<g id="edge4" class="edge"><title>Tournament&#45;&gt;Group</title>
<path fill="none" stroke="#4e490c" d="M442.121,-230.311C433.382,-217.275 422.545,-201.109 413.683,-187.887"/>
<ellipse fill="none" stroke="#4e490c" cx="444.584" cy="-233.987" rx="4.00002" ry="4.00002"/>
<polygon fill="#4e490c" stroke="#4e490c" points="413.48,-187.585 411.65,-176.773 410.696,-183.432 407.912,-179.279 407.912,-179.279 407.912,-179.279 410.696,-183.432 404.174,-181.784 413.48,-187.585 413.48,-187.585"/>
</g>
<!-- Tournament&#45;&gt;Team -->
<g id="edge5" class="edge"><title>Tournament&#45;&gt;Team</title>
<path fill="none" stroke="#cec1d6" d="M454.717,-228.52C450.863,-198.6 444.494,-149.164 440.533,-118.427"/>
<ellipse fill="none" stroke="#cec1d6" cx="455.281" cy="-232.897" rx="4.00001" ry="4.00001"/>
<polygon fill="#cec1d6" stroke="#cec1d6" points="440.519,-118.315 443.704,-107.822 439.88,-113.356 439.241,-108.397 439.241,-108.397 439.241,-108.397 439.88,-113.356 434.778,-108.972 440.519,-118.315 440.519,-118.315"/>
</g>
<!-- Tournament&#45;&gt;Player -->
<g id="edge6" class="edge"><title>Tournament&#45;&gt;Player</title>
<path fill="none" stroke="#21df2e" d="M467.677,-227.111C479.181,-190.904 494.727,-124.915 477,-72 473.337,-61.0658 466.429,-50.5844 459.372,-41.8714"/>
<polygon fill="#21df2e" stroke="#21df2e" points="467.571,-227.429 460.153,-235.505 465.998,-232.175 464.424,-236.921 464.424,-236.921 464.424,-236.921 465.998,-232.175 468.696,-238.337 467.571,-227.429 467.571,-227.429"/>
<polygon fill="#21df2e" stroke="#21df2e" points="459.198,-41.67 456.066,-31.1608 455.929,-37.8862 452.661,-34.1025 452.661,-34.1025 452.661,-34.1025 455.929,-37.8862 449.255,-37.0443 459.198,-41.67 459.198,-41.67"/>
</g>
</g>
</svg>
