<?xml version="1.0" encoding="UTF-8" standalone="no"?>
<!DOCTYPE svg PUBLIC "-//W3C//DTD SVG 1.1//EN"
 "http://www.w3.org/Graphics/SVG/1.1/DTD/svg11.dtd">
<!-- Generated by graphviz version 2.40.1 (20161225.0304)
 -->
<!-- Title: models_diagram Pages: 1 -->
<svg width="708pt" height="313pt"
 viewBox="0.00 0.00 707.69 313.00" xmlns="http://www.w3.org/2000/svg" xmlns:xlink="http://www.w3.org/1999/xlink">
<g id="graph0" class="graph" transform="scale(1 1) rotate(0) translate(4 309)">
<title>models_diagram</title>
<polygon fill="transparent" stroke="transparent" points="-4,4 -4,-309 703.6877,-309 703.6877,4 -4,4"/>
<!-- _diagram_info -->
<g id="node1" class="node">
<title>_diagram_info</title>
<text text-anchor="start" x="8" y="-290.6" font-family="Times,serif" font-size="13.00" fill="#000000">Models diagram</text>
<text text-anchor="start" x="8" y="-277.6" font-family="Times,serif" font-size="13.00" fill="#000000">Date: Apr 20 2017 &#45; 17:09</text>
<text text-anchor="start" x="8" y="-264.6" font-family="Times,serif" font-size="13.00" fill="#000000">Migration version: 20170419093508</text>
<text text-anchor="start" x="8" y="-251.6" font-family="Times,serif" font-size="13.00" fill="#000000">Generated by RailRoady 1.5.2</text>
<text text-anchor="start" x="8" y="-238.6" font-family="Times,serif" font-size="13.00" fill="#000000">http://railroady.prestonlee.com</text>
</g>
<!-- ApplicationRecord -->
<g id="node2" class="node">
<title>ApplicationRecord</title>
<ellipse fill="none" stroke="#000000" cx="302.6877" cy="-268.5" rx="77.2916" ry="18"/>
<text text-anchor="middle" x="302.6877" y="-264.3" font-family="Times,serif" font-size="14.00" fill="#000000">ApplicationRecord</text>
</g>
<!-- Group -->
<g id="node3" class="node">
<title>Group</title>
<ellipse fill="none" stroke="#000000" cx="405.6877" cy="-177" rx="32.9081" ry="18"/>
<text text-anchor="middle" x="405.6877" y="-172.8" font-family="Times,serif" font-size="14.00" fill="#000000">Group</text>
</g>
<!-- GroupsTeam -->
<g id="node4" class="node">
<title>GroupsTeam</title>
<ellipse fill="none" stroke="#000000" cx="458.6877" cy="-18" rx="55.8173" ry="18"/>
<text text-anchor="middle" x="458.6877" y="-13.8" font-family="Times,serif" font-size="14.00" fill="#000000">GroupsTeam</text>
</g>
<!-- Group&#45;&gt;GroupsTeam -->
<g id="edge2" class="edge">
<title>Group&#45;&gt;GroupsTeam</title>
<path fill="none" stroke="#f961c8" d="M403.8856,-150.572C403.2337,-124.6065 405.2897,-84.5484 420.6877,-54 422.8736,-49.6635 425.8026,-45.5688 429.0693,-41.8039"/>
<ellipse fill="none" stroke="#f961c8" cx="404.0448" cy="-154.8062" rx="4" ry="4"/>
<polygon fill="#f961c8" stroke="#f961c8" points="429.1411,-41.7303 439.3424,-37.7075 432.6301,-38.1488 436.1191,-34.5673 436.1191,-34.5673 436.1191,-34.5673 432.6301,-38.1488 432.8958,-31.4272 429.1411,-41.7303 429.1411,-41.7303"/>
</g>
<!-- Match -->
<g id="node5" class="node">
<title>Match</title>
<ellipse fill="none" stroke="#000000" cx="246.6877" cy="-18" rx="32.8994" ry="18"/>
<text text-anchor="middle" x="246.6877" y="-13.8" font-family="Times,serif" font-size="14.00" fill="#000000">Match</text>
</g>
<!-- Group&#45;&gt;Match -->
<g id="edge1" class="edge">
<title>Group&#45;&gt;Match</title>
<path fill="none" stroke="#404d5c" d="M366.6262,-169.4299C322.722,-160.0345 255.6051,-142.6968 240.6877,-122 224.823,-99.9889 229.6133,-68.0594 236.2981,-45.3956"/>
<ellipse fill="none" stroke="#404d5c" cx="370.6215" cy="-170.2687" rx="4" ry="4"/>
<polygon fill="#404d5c" stroke="#404d5c" points="236.3557,-45.2175 243.7167,-37.0894 237.8955,-40.4605 239.4354,-35.7035 239.4354,-35.7035 239.4354,-35.7035 237.8955,-40.4605 235.1541,-34.3176 236.3557,-45.2175 236.3557,-45.2175"/>
</g>
<!-- Team -->
<g id="node7" class="node">
<title>Team</title>
<ellipse fill="none" stroke="#000000" cx="465.6877" cy="-104" rx="29.7411" ry="18"/>
<text text-anchor="middle" x="465.6877" y="-99.8" font-family="Times,serif" font-size="14.00" fill="#000000">Team</text>
</g>
<!-- Group&#45;&gt;Team -->
<g id="edge3" class="edge">
<title>Group&#45;&gt;Team</title>
<path fill="none" stroke="#4074b9" d="M425.6946,-152.6583C432.1975,-144.7465 439.4076,-135.9742 445.8947,-128.0815"/>
<polygon fill="#4074b9" stroke="#4074b9" points="425.6524,-152.7097 415.8262,-157.5778 422.4775,-156.5725 419.3027,-160.4352 419.3027,-160.4352 419.3027,-160.4352 422.4775,-156.5725 422.7791,-163.2925 425.6524,-152.7097 425.6524,-152.7097"/>
<polygon fill="#4074b9" stroke="#4074b9" points="445.9837,-127.9732 455.8098,-123.1052 449.1585,-124.1105 452.3334,-120.2478 452.3334,-120.2478 452.3334,-120.2478 449.1585,-124.1105 448.8569,-117.3905 445.9837,-127.9732 445.9837,-127.9732"/>
</g>
<!-- Player -->
<g id="node6" class="node">
<title>Player</title>
<ellipse fill="none" stroke="#000000" cx="617.6877" cy="-18" rx="32.8994" ry="18"/>
<text text-anchor="middle" x="617.6877" y="-13.8" font-family="Times,serif" font-size="14.00" fill="#000000">Player</text>
</g>
<!-- Team&#45;&gt;GroupsTeam -->
<g id="edge7" class="edge">
<title>Team&#45;&gt;GroupsTeam</title>
<path fill="none" stroke="#29c058" d="M502.3083,-97.4692C532.9395,-90.2795 569.3137,-76.6317 553.6877,-54 548.2654,-46.1467 530.4515,-38.4999 511.6912,-32.2884"/>
<ellipse fill="none" stroke="#29c058" cx="498.1811" cy="-98.3809" rx="4" ry="4"/>
<polygon fill="#29c058" stroke="#29c058" points="511.6902,-32.2881 503.5154,-24.9789 506.9235,-30.7785 502.1568,-29.269 502.1568,-29.269 502.1568,-29.269 506.9235,-30.7785 500.7982,-33.559 511.6902,-32.2881 511.6902,-32.2881"/>
</g>
<!-- Team&#45;&gt;Match -->
<g id="edge5" class="edge">
<title>Team&#45;&gt;Match</title>
<path fill="none" stroke="#52db21" d="M428.0999,-100.6735C394.5584,-96.5377 344.8455,-87.4743 305.7356,-68 292.3206,-61.3202 279.3839,-50.9667 269.0563,-41.41"/>
<ellipse fill="none" stroke="#52db21" cx="432.2894" cy="-101.1604" rx="4" ry="4"/>
<polygon fill="#52db21" stroke="#52db21" points="268.9071,-41.2664 264.8233,-31.0893 265.3048,-37.7988 261.7025,-34.3313 261.7025,-34.3313 261.7025,-34.3313 265.3048,-37.7988 258.5818,-37.5733 268.9071,-41.2664 268.9071,-41.2664"/>
<text text-anchor="middle" x="362.6638" y="-56.8" font-family="Times,serif" font-size="14.00" fill="#000000">matches_as_team_a</text>
</g>
<!-- Team&#45;&gt;Match -->
<g id="edge6" class="edge">
<title>Team&#45;&gt;Match</title>
<path fill="none" stroke="#d2f2b8" d="M448.6623,-80.8542C440.3612,-71.1512 429.5984,-60.61 417.6877,-54 395.8923,-41.9042 331.6199,-30.5037 288.3829,-23.8898"/>
<ellipse fill="none" stroke="#d2f2b8" cx="451.2134" cy="-83.9663" rx="4" ry="4"/>
<polygon fill="#d2f2b8" stroke="#d2f2b8" points="288.3115,-23.8792 279.091,-17.9435 283.3669,-23.1363 278.4224,-22.3935 278.4224,-22.3935 278.4224,-22.3935 283.3669,-23.1363 277.7539,-26.8436 288.3115,-23.8792 288.3115,-23.8792"/>
<text text-anchor="middle" x="492.0569" y="-56.8" font-family="Times,serif" font-size="14.00" fill="#000000">matches_as_team_b</text>
</g>
<!-- Team&#45;&gt;Player -->
<g id="edge4" class="edge">
<title>Team&#45;&gt;Player</title>
<path fill="none" stroke="#707c98" d="M501.8336,-95.751C522.4674,-90.001 548.2193,-81.0007 568.6877,-68 579.4794,-61.1456 589.6754,-51.4825 597.9432,-42.4761"/>
<ellipse fill="none" stroke="#707c98" cx="497.7755" cy="-96.8368" rx="4" ry="4"/>
<polygon fill="#707c98" stroke="#707c98" points="598.0748,-42.3264 608.0581,-37.7894 601.377,-38.5719 604.6791,-34.8175 604.6791,-34.8175 604.6791,-34.8175 601.377,-38.5719 601.3001,-31.8455 598.0748,-42.3264 598.0748,-42.3264"/>
</g>
<!-- Tournament -->
<g id="node8" class="node">
<title>Tournament</title>
<ellipse fill="none" stroke="#000000" cx="450.6877" cy="-268.5" rx="52.9192" ry="18"/>
<text text-anchor="middle" x="450.6877" y="-264.3" font-family="Times,serif" font-size="14.00" fill="#000000">Tournament</text>
</g>
<!-- Tournament&#45;&gt;Group -->
<g id="edge8" class="edge">
<title>Tournament&#45;&gt;Group</title>
<path fill="none" stroke="#8984a6" d="M438.2288,-243.1667C432.1501,-230.8068 424.8413,-215.9456 418.6917,-203.4413"/>
<ellipse fill="none" stroke="#8984a6" cx="440.0319" cy="-246.8331" rx="4" ry="4"/>
<polygon fill="#8984a6" stroke="#8984a6" points="418.6678,-203.3926 418.2926,-192.4331 416.4611,-198.9058 414.2545,-194.4191 414.2545,-194.4191 414.2545,-194.4191 416.4611,-198.9058 410.2164,-196.405 418.6678,-203.3926 418.6678,-203.3926"/>
</g>
<!-- Tournament&#45;&gt;Match -->
<g id="edge11" class="edge">
<title>Tournament&#45;&gt;Match</title>
<path fill="none" stroke="#370ac8" d="M416.2773,-247.1967C354.799,-208.9707 231.9816,-131.7878 226.6877,-122 212.3084,-95.414 219.9632,-83.2218 227.6877,-54 228.5366,-50.7888 229.7142,-47.5432 231.0712,-44.3842"/>
<polygon fill="#370ac8" stroke="#370ac8" points="416.3868,-247.2647 422.507,-256.3638 420.6342,-249.903 424.8815,-252.5412 424.8815,-252.5412 424.8815,-252.5412 420.6342,-249.903 427.2559,-248.7187 416.3868,-247.2647 416.3868,-247.2647"/>
<polygon fill="#370ac8" stroke="#370ac8" points="231.1289,-44.2665 239.5717,-37.2686 233.33,-39.777 235.5312,-35.2876 235.5312,-35.2876 235.5312,-35.2876 233.33,-39.777 231.4907,-33.3065 231.1289,-44.2665 231.1289,-44.2665"/>
</g>
<!-- Tournament&#45;&gt;Player -->
<g id="edge10" class="edge">
<title>Tournament&#45;&gt;Player</title>
<path fill="none" stroke="#aac238" d="M468.7825,-244.5134C496.3937,-207.4982 550.1103,-133.8367 590.6877,-68 595.3245,-60.4769 600.0222,-52.0967 604.1704,-44.3803"/>
<ellipse fill="none" stroke="#aac238" cx="466.3355" cy="-247.7852" rx="4" ry="4"/>
<polygon fill="#aac238" stroke="#aac238" points="604.2442,-44.2407 612.8954,-37.5022 606.5805,-39.8201 608.9169,-35.3995 608.9169,-35.3995 608.9169,-35.3995 606.5805,-39.8201 604.9384,-33.2968 604.2442,-44.2407 604.2442,-44.2407"/>
</g>
<!-- Tournament&#45;&gt;Team -->
<g id="edge9" class="edge">
<title>Tournament&#45;&gt;Team</title>
<path fill="none" stroke="#fd7543" d="M453.0804,-242.2601C455.8241,-212.1714 460.3047,-163.0336 463.1199,-132.161"/>
<ellipse fill="none" stroke="#fd7543" cx="452.7136" cy="-246.2836" rx="4" ry="4"/>
<polygon fill="#fd7543" stroke="#fd7543" points="463.1324,-132.0225 468.522,-122.4725 463.5865,-127.0432 464.0406,-122.0639 464.0406,-122.0639 464.0406,-122.0639 463.5865,-127.0432 459.5592,-121.6552 463.1324,-132.0225 463.1324,-132.0225"/>
</g>
<!-- User -->
<g id="node9" class="node">
<title>User</title>
<ellipse fill="none" stroke="#000000" cx="672.6877" cy="-104" rx="27" ry="18"/>
<text text-anchor="middle" x="672.6877" y="-99.8" font-family="Times,serif" font-size="14.00" fill="#000000">User</text>
</g>
<!-- User&#45;&gt;Player -->
<g id="edge12" class="edge">
<title>User&#45;&gt;Player</title>
<path fill="none" stroke="#107955" d="M657.5335,-80.3043C650.236,-68.8937 641.4748,-55.1943 634.0283,-43.5507"/>
<ellipse fill="none" stroke="#107955" cx="659.9281" cy="-84.0485" rx="4" ry="4"/>
<polygon fill="#107955" stroke="#107955" points="634.024,-43.5439 632.4272,-32.6949 631.3301,-39.3316 628.6362,-35.1194 628.6362,-35.1194 628.6362,-35.1194 631.3301,-39.3316 624.8452,-37.5439 634.024,-43.5439 634.024,-43.5439"/>
</g>
<!-- Venue -->
<g id="node10" class="node">
<title>Venue</title>
<ellipse fill="none" stroke="#000000" cx="281.6877" cy="-104" rx="32.415" ry="18"/>
<text text-anchor="middle" x="281.6877" y="-99.8" font-family="Times,serif" font-size="14.00" fill="#000000">Venue</text>
</g>
<!-- Venue&#45;&gt;Match -->
<g id="edge13" class="edge">
<title>Venue&#45;&gt;Match</title>
<path fill="none" stroke="#ed01a9" d="M266.4234,-79.7403C264.331,-75.8941 262.3382,-71.8978 260.6877,-68 257.7254,-61.0039 255.1961,-53.1949 253.1359,-45.8666"/>
<ellipse fill="none" stroke="#ed01a9" cx="268.5219" cy="-83.4133" rx="4" ry="4"/>
<polygon fill="#ed01a9" stroke="#ed01a9" points="253.0752,-45.6348 254.8924,-34.8205 251.8073,-40.7982 250.5394,-35.9616 250.5394,-35.9616 250.5394,-35.9616 251.8073,-40.7982 246.1865,-37.1027 253.0752,-45.6348 253.0752,-45.6348"/>
</g>
</g>
</svg>
